<mxfile host="Electron" agent="Mozilla/5.0 (Windows NT 10.0; Win64; x64) AppleWebKit/537.36 (KHTML, like Gecko) draw.io/24.7.17 Chrome/128.0.6613.36 Electron/32.0.1 Safari/537.36" version="24.7.17">
  <diagram name="Page-1" id="G2LU9xgcfDEdTwlNo2La">
    <mxGraphModel dx="1050" dy="629" grid="1" gridSize="10" guides="1" tooltips="1" connect="1" arrows="1" fold="1" page="1" pageScale="1" pageWidth="827" pageHeight="1169" math="1" shadow="0">
      <root>
        <mxCell id="0" />
        <mxCell id="1" parent="0" />
        <mxCell id="TUf9E8LhpPjof6Dp3Csr-1" value="" style="verticalLabelPosition=bottom;shadow=0;dashed=0;align=center;html=1;verticalAlign=top;shape=mxgraph.electrical.transistors.npn_transistor_1;rotation=-90;strokeWidth=2;" parent="1" vertex="1">
          <mxGeometry x="350" y="700.5" width="107.5" height="107.5" as="geometry" />
        </mxCell>
        <mxCell id="TUf9E8LhpPjof6Dp3Csr-9" value="" style="html=1;shape=mxgraph.electrical.electro-mechanical.singleSwitch;aspect=fixed;elSwitchState=off;strokeWidth=2;" parent="1" vertex="1">
          <mxGeometry x="358.75" y="1111" width="90" height="24" as="geometry" />
        </mxCell>
        <mxCell id="TUf9E8LhpPjof6Dp3Csr-12" value="" style="group;rotation=-180;flipH=0;flipV=1;" parent="1" vertex="1" connectable="0">
          <mxGeometry x="470" y="780" width="99" height="110" as="geometry" />
        </mxCell>
        <mxCell id="TUf9E8LhpPjof6Dp3Csr-13" value="" style="triangle;whiteSpace=wrap;html=1;strokeWidth=2;spacingRight=35;spacingLeft=9;fontSize=17;rotation=-180;" parent="TUf9E8LhpPjof6Dp3Csr-12" vertex="1">
          <mxGeometry width="99" height="110" as="geometry" />
        </mxCell>
        <mxCell id="TUf9E8LhpPjof6Dp3Csr-14" value="&lt;font style=&quot;font-size: 26px;&quot;&gt;-&lt;/font&gt;" style="text;html=1;align=center;verticalAlign=middle;whiteSpace=wrap;rounded=0;fontSize=26;rotation=-180;" parent="TUf9E8LhpPjof6Dp3Csr-12" vertex="1">
          <mxGeometry x="81" y="24.36" width="14.05" height="9.64" as="geometry" />
        </mxCell>
        <mxCell id="TUf9E8LhpPjof6Dp3Csr-16" value="" style="pointerEvents=1;verticalLabelPosition=bottom;shadow=0;dashed=0;align=center;html=1;verticalAlign=top;shape=mxgraph.electrical.capacitors.capacitor_1;strokeWidth=2;rotation=90;" parent="1" vertex="1">
          <mxGeometry x="1190" y="785.96" width="100" height="30" as="geometry" />
        </mxCell>
        <mxCell id="TUf9E8LhpPjof6Dp3Csr-27" style="edgeStyle=orthogonalEdgeStyle;rounded=0;orthogonalLoop=1;jettySize=auto;html=1;exitX=1;exitY=0.5;exitDx=0;exitDy=0;exitPerimeter=0;strokeWidth=2;endArrow=none;endFill=0;" parent="1" source="TUf9E8LhpPjof6Dp3Csr-17" edge="1">
          <mxGeometry relative="1" as="geometry">
            <mxPoint x="699.9195402298851" y="980" as="targetPoint" />
          </mxGeometry>
        </mxCell>
        <mxCell id="TUf9E8LhpPjof6Dp3Csr-17" value="" style="pointerEvents=1;verticalLabelPosition=bottom;shadow=0;dashed=0;align=center;html=1;verticalAlign=top;shape=mxgraph.electrical.resistors.resistor_2;rotation=90;strokeWidth=2;" parent="1" vertex="1">
          <mxGeometry x="650" y="880.5" width="100" height="20" as="geometry" />
        </mxCell>
        <mxCell id="TUf9E8LhpPjof6Dp3Csr-18" style="edgeStyle=orthogonalEdgeStyle;rounded=0;orthogonalLoop=1;jettySize=auto;html=1;exitX=1;exitY=0.5;exitDx=0;exitDy=0;entryX=0;entryY=0.5;entryDx=0;entryDy=0;entryPerimeter=0;strokeWidth=2;endArrow=none;endFill=0;" parent="1" source="TUf9E8LhpPjof6Dp3Csr-13" target="TUf9E8LhpPjof6Dp3Csr-1" edge="1">
          <mxGeometry relative="1" as="geometry" />
        </mxCell>
        <mxCell id="TUf9E8LhpPjof6Dp3Csr-30" style="edgeStyle=orthogonalEdgeStyle;rounded=0;orthogonalLoop=1;jettySize=auto;html=1;exitX=0.58;exitY=0.935;exitDx=0;exitDy=0;exitPerimeter=0;strokeWidth=2;endArrow=none;endFill=0;" parent="1" source="TUf9E8LhpPjof6Dp3Csr-21" edge="1">
          <mxGeometry relative="1" as="geometry">
            <mxPoint x="290.4761904761905" y="980" as="targetPoint" />
          </mxGeometry>
        </mxCell>
        <mxCell id="TUf9E8LhpPjof6Dp3Csr-21" value="" style="pointerEvents=1;verticalLabelPosition=bottom;shadow=0;dashed=0;align=center;html=1;verticalAlign=top;shape=mxgraph.electrical.signal_sources.dc_source_1;strokeWidth=2;" parent="1" vertex="1">
          <mxGeometry x="250" y="825.5" width="70" height="75" as="geometry" />
        </mxCell>
        <mxCell id="TUf9E8LhpPjof6Dp3Csr-22" style="edgeStyle=orthogonalEdgeStyle;rounded=0;orthogonalLoop=1;jettySize=auto;html=1;exitX=0.58;exitY=0.135;exitDx=0;exitDy=0;exitPerimeter=0;entryX=0.7;entryY=0;entryDx=0;entryDy=0;entryPerimeter=0;strokeWidth=2;endArrow=none;endFill=0;" parent="1" source="TUf9E8LhpPjof6Dp3Csr-21" target="TUf9E8LhpPjof6Dp3Csr-1" edge="1">
          <mxGeometry relative="1" as="geometry">
            <Array as="points">
              <mxPoint x="291" y="735" />
            </Array>
          </mxGeometry>
        </mxCell>
        <mxCell id="TUf9E8LhpPjof6Dp3Csr-23" style="edgeStyle=orthogonalEdgeStyle;rounded=0;orthogonalLoop=1;jettySize=auto;html=1;exitX=0.7;exitY=1;exitDx=0;exitDy=0;exitPerimeter=0;entryX=0;entryY=0.5;entryDx=0;entryDy=0;entryPerimeter=0;strokeWidth=2;endArrow=none;endFill=0;" parent="1" source="TUf9E8LhpPjof6Dp3Csr-1" target="TUf9E8LhpPjof6Dp3Csr-17" edge="1">
          <mxGeometry relative="1" as="geometry" />
        </mxCell>
        <mxCell id="TUf9E8LhpPjof6Dp3Csr-24" style="edgeStyle=orthogonalEdgeStyle;rounded=0;orthogonalLoop=1;jettySize=auto;html=1;exitX=0;exitY=0.75;exitDx=0;exitDy=0;entryX=0;entryY=0.5;entryDx=0;entryDy=0;entryPerimeter=0;strokeWidth=2;endArrow=none;endFill=0;" parent="1" source="TUf9E8LhpPjof6Dp3Csr-13" target="TUf9E8LhpPjof6Dp3Csr-17" edge="1">
          <mxGeometry relative="1" as="geometry" />
        </mxCell>
        <mxCell id="TUf9E8LhpPjof6Dp3Csr-15" value="&lt;font style=&quot;font-size: 26px;&quot;&gt;+&lt;/font&gt;" style="text;html=1;align=center;verticalAlign=middle;whiteSpace=wrap;rounded=0;fontSize=26;rotation=-180;" parent="1" vertex="1">
          <mxGeometry x="551" y="854.29" width="14.05" height="13.71" as="geometry" />
        </mxCell>
        <mxCell id="TUf9E8LhpPjof6Dp3Csr-25" value="" style="endArrow=none;html=1;rounded=0;strokeWidth=2;" parent="1" edge="1">
          <mxGeometry width="50" height="50" relative="1" as="geometry">
            <mxPoint x="690.0000000000002" y="980" as="sourcePoint" />
            <mxPoint x="710.0000000000002" y="980" as="targetPoint" />
          </mxGeometry>
        </mxCell>
        <mxCell id="TUf9E8LhpPjof6Dp3Csr-26" value="" style="endArrow=none;html=1;rounded=0;strokeWidth=2;" parent="1" edge="1">
          <mxGeometry width="50" height="50" relative="1" as="geometry">
            <mxPoint x="695.0000000000002" y="984.7400000000002" as="sourcePoint" />
            <mxPoint x="705.0000000000002" y="984.7400000000002" as="targetPoint" />
          </mxGeometry>
        </mxCell>
        <mxCell id="TUf9E8LhpPjof6Dp3Csr-28" value="" style="endArrow=none;html=1;rounded=0;strokeWidth=2;" parent="1" edge="1">
          <mxGeometry width="50" height="50" relative="1" as="geometry">
            <mxPoint x="280.0000000000002" y="980" as="sourcePoint" />
            <mxPoint x="300.0000000000002" y="980" as="targetPoint" />
          </mxGeometry>
        </mxCell>
        <mxCell id="TUf9E8LhpPjof6Dp3Csr-29" value="" style="endArrow=none;html=1;rounded=0;strokeWidth=2;" parent="1" edge="1">
          <mxGeometry width="50" height="50" relative="1" as="geometry">
            <mxPoint x="285.0000000000002" y="984.7400000000002" as="sourcePoint" />
            <mxPoint x="295.0000000000002" y="984.7400000000002" as="targetPoint" />
          </mxGeometry>
        </mxCell>
        <mxCell id="TUf9E8LhpPjof6Dp3Csr-31" value="" style="verticalLabelPosition=bottom;shadow=0;dashed=0;align=center;html=1;verticalAlign=top;shape=mxgraph.electrical.logic_gates.inverting_contact;strokeWidth=2;" parent="1" vertex="1">
          <mxGeometry x="740" y="729.9999999999995" width="10" height="10" as="geometry" />
        </mxCell>
        <mxCell id="TUf9E8LhpPjof6Dp3Csr-32" style="edgeStyle=orthogonalEdgeStyle;rounded=0;orthogonalLoop=1;jettySize=auto;html=1;exitX=0.1;exitY=0.5;exitDx=0;exitDy=0;exitPerimeter=0;entryX=0;entryY=0.5;entryDx=0;entryDy=0;entryPerimeter=0;strokeWidth=2;endArrow=none;endFill=0;" parent="1" source="TUf9E8LhpPjof6Dp3Csr-31" target="TUf9E8LhpPjof6Dp3Csr-17" edge="1">
          <mxGeometry relative="1" as="geometry" />
        </mxCell>
        <mxCell id="TUf9E8LhpPjof6Dp3Csr-33" value="" style="verticalLabelPosition=bottom;shadow=0;dashed=0;align=center;html=1;verticalAlign=top;shape=mxgraph.electrical.logic_gates.inverting_contact;strokeWidth=2;" parent="1" vertex="1">
          <mxGeometry x="614" y="909.9999999999995" width="10" height="10" as="geometry" />
        </mxCell>
        <mxCell id="TUf9E8LhpPjof6Dp3Csr-34" style="edgeStyle=orthogonalEdgeStyle;rounded=0;orthogonalLoop=1;jettySize=auto;html=1;exitX=0;exitY=0.25;exitDx=0;exitDy=0;entryX=0.508;entryY=0.165;entryDx=0;entryDy=0;entryPerimeter=0;strokeWidth=2;endArrow=none;endFill=0;" parent="1" source="TUf9E8LhpPjof6Dp3Csr-13" target="TUf9E8LhpPjof6Dp3Csr-33" edge="1">
          <mxGeometry relative="1" as="geometry">
            <mxPoint x="620" y="880" as="targetPoint" />
          </mxGeometry>
        </mxCell>
        <mxCell id="TUf9E8LhpPjof6Dp3Csr-36" value="$$V_S$$" style="text;html=1;align=center;verticalAlign=middle;whiteSpace=wrap;rounded=0;fontSize=16;" parent="1" vertex="1">
          <mxGeometry x="322" y="854.29" width="35" height="20" as="geometry" />
        </mxCell>
        <mxCell id="TUf9E8LhpPjof6Dp3Csr-37" value="$$V_o$$" style="text;html=1;align=center;verticalAlign=middle;whiteSpace=wrap;rounded=0;fontSize=16;" parent="1" vertex="1">
          <mxGeometry x="712" y="708" width="35" height="20" as="geometry" />
        </mxCell>
        <mxCell id="TUf9E8LhpPjof6Dp3Csr-38" value="$$R_L$$" style="text;html=1;align=center;verticalAlign=middle;whiteSpace=wrap;rounded=0;fontSize=16;" parent="1" vertex="1">
          <mxGeometry x="655" y="879.5" width="35" height="20" as="geometry" />
        </mxCell>
        <mxCell id="TUf9E8LhpPjof6Dp3Csr-39" value="$$V_{ref}$$" style="text;html=1;align=center;verticalAlign=middle;whiteSpace=wrap;rounded=0;fontSize=16;" parent="1" vertex="1">
          <mxGeometry x="625" y="922" width="35" height="20" as="geometry" />
        </mxCell>
        <mxCell id="TUf9E8LhpPjof6Dp3Csr-40" value="$$Q$$" style="text;html=1;align=center;verticalAlign=middle;whiteSpace=wrap;rounded=0;fontSize=16;" parent="1" vertex="1">
          <mxGeometry x="435" y="780" width="35" height="20" as="geometry" />
        </mxCell>
        <mxCell id="TUf9E8LhpPjof6Dp3Csr-49" style="edgeStyle=orthogonalEdgeStyle;rounded=0;orthogonalLoop=1;jettySize=auto;html=1;exitX=0.58;exitY=0.935;exitDx=0;exitDy=0;exitPerimeter=0;strokeWidth=2;endArrow=none;endFill=0;" parent="1" source="TUf9E8LhpPjof6Dp3Csr-43" edge="1">
          <mxGeometry relative="1" as="geometry">
            <mxPoint x="290.49425287356325" y="1270" as="targetPoint" />
          </mxGeometry>
        </mxCell>
        <mxCell id="TUf9E8LhpPjof6Dp3Csr-43" value="" style="pointerEvents=1;verticalLabelPosition=bottom;shadow=0;dashed=0;align=center;html=1;verticalAlign=top;shape=mxgraph.electrical.signal_sources.dc_source_1;strokeWidth=2;" parent="1" vertex="1">
          <mxGeometry x="262" y="1169" width="50" height="55.5" as="geometry" />
        </mxCell>
        <mxCell id="TUf9E8LhpPjof6Dp3Csr-44" style="edgeStyle=orthogonalEdgeStyle;rounded=0;orthogonalLoop=1;jettySize=auto;html=1;exitX=0.58;exitY=0.135;exitDx=0;exitDy=0;exitPerimeter=0;entryX=0;entryY=0.8;entryDx=0;entryDy=0;strokeWidth=2;endArrow=none;endFill=0;" parent="1" source="TUf9E8LhpPjof6Dp3Csr-43" target="TUf9E8LhpPjof6Dp3Csr-9" edge="1">
          <mxGeometry relative="1" as="geometry">
            <mxPoint x="350" y="1070" as="targetPoint" />
            <Array as="points">
              <mxPoint x="291" y="1130" />
              <mxPoint x="359" y="1130" />
            </Array>
          </mxGeometry>
        </mxCell>
        <mxCell id="TUf9E8LhpPjof6Dp3Csr-45" value="" style="endArrow=none;html=1;rounded=0;strokeWidth=2;" parent="1" edge="1">
          <mxGeometry width="50" height="50" relative="1" as="geometry">
            <mxPoint x="280.0000000000002" y="1270" as="sourcePoint" />
            <mxPoint x="300.0000000000002" y="1270" as="targetPoint" />
          </mxGeometry>
        </mxCell>
        <mxCell id="TUf9E8LhpPjof6Dp3Csr-46" value="" style="endArrow=none;html=1;rounded=0;strokeWidth=2;" parent="1" edge="1">
          <mxGeometry width="50" height="50" relative="1" as="geometry">
            <mxPoint x="285.0000000000002" y="1274.7400000000002" as="sourcePoint" />
            <mxPoint x="295.0000000000002" y="1274.7400000000002" as="targetPoint" />
          </mxGeometry>
        </mxCell>
        <mxCell id="TUf9E8LhpPjof6Dp3Csr-47" value="$$V_S$$" style="text;html=1;align=center;verticalAlign=middle;whiteSpace=wrap;rounded=0;fontSize=16;" parent="1" vertex="1">
          <mxGeometry x="319" y="1189.29" width="35" height="20" as="geometry" />
        </mxCell>
        <mxCell id="TUf9E8LhpPjof6Dp3Csr-55" style="edgeStyle=orthogonalEdgeStyle;rounded=0;orthogonalLoop=1;jettySize=auto;html=1;exitX=1;exitY=0.5;exitDx=0;exitDy=0;exitPerimeter=0;strokeWidth=2;endArrow=none;endFill=0;" parent="1" source="TUf9E8LhpPjof6Dp3Csr-48" edge="1">
          <mxGeometry relative="1" as="geometry">
            <mxPoint x="514.6666666666666" y="1270" as="targetPoint" />
          </mxGeometry>
        </mxCell>
        <mxCell id="TUf9E8LhpPjof6Dp3Csr-48" value="" style="pointerEvents=1;verticalLabelPosition=bottom;shadow=0;dashed=0;align=center;html=1;verticalAlign=top;shape=mxgraph.electrical.resistors.resistor_2;rotation=90;strokeWidth=2;" parent="1" vertex="1">
          <mxGeometry x="464.69" y="1189.65" width="100" height="19.29" as="geometry" />
        </mxCell>
        <mxCell id="TUf9E8LhpPjof6Dp3Csr-51" value="$$R_L$$" style="text;html=1;align=center;verticalAlign=middle;whiteSpace=wrap;rounded=0;fontSize=16;" parent="1" vertex="1">
          <mxGeometry x="465.05" y="1189.29" width="35" height="20" as="geometry" />
        </mxCell>
        <mxCell id="TUf9E8LhpPjof6Dp3Csr-52" style="edgeStyle=orthogonalEdgeStyle;rounded=0;orthogonalLoop=1;jettySize=auto;html=1;exitX=1;exitY=0.8;exitDx=0;exitDy=0;entryX=0;entryY=0.5;entryDx=0;entryDy=0;entryPerimeter=0;strokeWidth=2;endArrow=none;endFill=0;" parent="1" source="TUf9E8LhpPjof6Dp3Csr-9" target="TUf9E8LhpPjof6Dp3Csr-48" edge="1">
          <mxGeometry relative="1" as="geometry" />
        </mxCell>
        <mxCell id="TUf9E8LhpPjof6Dp3Csr-53" value="" style="endArrow=none;html=1;rounded=0;strokeWidth=2;" parent="1" edge="1">
          <mxGeometry width="50" height="50" relative="1" as="geometry">
            <mxPoint x="504.6900000000002" y="1270" as="sourcePoint" />
            <mxPoint x="524.6900000000003" y="1270" as="targetPoint" />
          </mxGeometry>
        </mxCell>
        <mxCell id="TUf9E8LhpPjof6Dp3Csr-54" value="" style="endArrow=none;html=1;rounded=0;strokeWidth=2;" parent="1" edge="1">
          <mxGeometry width="50" height="50" relative="1" as="geometry">
            <mxPoint x="509.6900000000002" y="1274.7400000000002" as="sourcePoint" />
            <mxPoint x="519.6900000000003" y="1274.7400000000002" as="targetPoint" />
          </mxGeometry>
        </mxCell>
        <mxCell id="TUf9E8LhpPjof6Dp3Csr-56" value="" style="endArrow=none;html=1;rounded=0;strokeWidth=2;" parent="1" edge="1">
          <mxGeometry width="50" height="50" relative="1" as="geometry">
            <mxPoint x="404" y="1147" as="sourcePoint" />
            <mxPoint x="404" y="1137" as="targetPoint" />
          </mxGeometry>
        </mxCell>
        <mxCell id="TUf9E8LhpPjof6Dp3Csr-57" value="$$CLK$$" style="text;html=1;align=center;verticalAlign=middle;whiteSpace=wrap;rounded=0;fontSize=12;" parent="1" vertex="1">
          <mxGeometry x="386.25" y="1149" width="35" height="20" as="geometry" />
        </mxCell>
        <mxCell id="TUf9E8LhpPjof6Dp3Csr-76" style="edgeStyle=orthogonalEdgeStyle;rounded=0;orthogonalLoop=1;jettySize=auto;html=1;exitX=0;exitY=1;exitDx=0;exitDy=0;exitPerimeter=0;entryX=1;entryY=0.8;entryDx=0;entryDy=0;strokeWidth=2;endArrow=none;endFill=0;" parent="1" source="TUf9E8LhpPjof6Dp3Csr-58" target="TUf9E8LhpPjof6Dp3Csr-59" edge="1">
          <mxGeometry relative="1" as="geometry">
            <Array as="points">
              <mxPoint x="1093" y="733.78" />
            </Array>
          </mxGeometry>
        </mxCell>
        <mxCell id="TUf9E8LhpPjof6Dp3Csr-58" value="" style="pointerEvents=1;verticalLabelPosition=bottom;shadow=0;dashed=0;align=center;html=1;verticalAlign=top;shape=mxgraph.electrical.inductors.inductor_3;rotation=0;strokeWidth=2;" parent="1" vertex="1">
          <mxGeometry x="1119.5" y="724.28" width="100" height="10" as="geometry" />
        </mxCell>
        <mxCell id="TUf9E8LhpPjof6Dp3Csr-70" style="edgeStyle=orthogonalEdgeStyle;rounded=0;orthogonalLoop=1;jettySize=auto;html=1;exitX=1;exitY=0.8;exitDx=0;exitDy=0;entryX=1;entryY=0.5;entryDx=0;entryDy=0;entryPerimeter=0;strokeWidth=2;endArrow=none;endFill=0;" parent="1" source="TUf9E8LhpPjof6Dp3Csr-59" target="TUf9E8LhpPjof6Dp3Csr-69" edge="1">
          <mxGeometry relative="1" as="geometry">
            <mxPoint x="1109.5" y="758.21" as="targetPoint" />
          </mxGeometry>
        </mxCell>
        <mxCell id="TUf9E8LhpPjof6Dp3Csr-59" value="" style="html=1;shape=mxgraph.electrical.electro-mechanical.singleSwitch;aspect=fixed;elSwitchState=off;strokeWidth=2;" parent="1" vertex="1">
          <mxGeometry x="977" y="715.21" width="90" height="24" as="geometry" />
        </mxCell>
        <mxCell id="TUf9E8LhpPjof6Dp3Csr-60" value="" style="endArrow=none;html=1;rounded=0;strokeWidth=2;" parent="1" edge="1">
          <mxGeometry width="50" height="50" relative="1" as="geometry">
            <mxPoint x="1022.25" y="751.21" as="sourcePoint" />
            <mxPoint x="1022.25" y="741.21" as="targetPoint" />
          </mxGeometry>
        </mxCell>
        <mxCell id="TUf9E8LhpPjof6Dp3Csr-61" value="$$CLK$$" style="text;html=1;align=center;verticalAlign=middle;whiteSpace=wrap;rounded=0;fontSize=12;" parent="1" vertex="1">
          <mxGeometry x="1004.5" y="753.21" width="35" height="20" as="geometry" />
        </mxCell>
        <mxCell id="TUf9E8LhpPjof6Dp3Csr-78" style="edgeStyle=orthogonalEdgeStyle;rounded=0;orthogonalLoop=1;jettySize=auto;html=1;exitX=0.58;exitY=0.935;exitDx=0;exitDy=0;exitPerimeter=0;strokeWidth=2;endArrow=none;endFill=0;" parent="1" source="TUf9E8LhpPjof6Dp3Csr-63" edge="1">
          <mxGeometry relative="1" as="geometry">
            <mxPoint x="949.047619047619" y="894.78" as="targetPoint" />
          </mxGeometry>
        </mxCell>
        <mxCell id="TUf9E8LhpPjof6Dp3Csr-63" value="" style="pointerEvents=1;verticalLabelPosition=bottom;shadow=0;dashed=0;align=center;html=1;verticalAlign=top;shape=mxgraph.electrical.signal_sources.dc_source_1;strokeWidth=2;" parent="1" vertex="1">
          <mxGeometry x="920" y="773.21" width="50" height="55.5" as="geometry" />
        </mxCell>
        <mxCell id="TUf9E8LhpPjof6Dp3Csr-64" value="" style="endArrow=none;html=1;rounded=0;strokeWidth=2;" parent="1" edge="1">
          <mxGeometry width="50" height="50" relative="1" as="geometry">
            <mxPoint x="939.0000000000002" y="895.21" as="sourcePoint" />
            <mxPoint x="959.0000000000002" y="895.21" as="targetPoint" />
          </mxGeometry>
        </mxCell>
        <mxCell id="TUf9E8LhpPjof6Dp3Csr-65" value="" style="endArrow=none;html=1;rounded=0;strokeWidth=2;" parent="1" edge="1">
          <mxGeometry width="50" height="50" relative="1" as="geometry">
            <mxPoint x="944.0000000000002" y="899.9500000000003" as="sourcePoint" />
            <mxPoint x="954.0000000000002" y="899.9500000000003" as="targetPoint" />
          </mxGeometry>
        </mxCell>
        <mxCell id="TUf9E8LhpPjof6Dp3Csr-66" value="$$V_S$$" style="text;html=1;align=center;verticalAlign=middle;whiteSpace=wrap;rounded=0;fontSize=16;" parent="1" vertex="1">
          <mxGeometry x="977" y="793.5" width="35" height="20" as="geometry" />
        </mxCell>
        <mxCell id="TUf9E8LhpPjof6Dp3Csr-82" style="edgeStyle=orthogonalEdgeStyle;rounded=0;orthogonalLoop=1;jettySize=auto;html=1;exitX=1;exitY=0.5;exitDx=0;exitDy=0;exitPerimeter=0;entryX=1;entryY=0.5;entryDx=0;entryDy=0;entryPerimeter=0;strokeWidth=2;endArrow=none;endFill=0;" parent="1" source="TUf9E8LhpPjof6Dp3Csr-67" target="TUf9E8LhpPjof6Dp3Csr-16" edge="1">
          <mxGeometry relative="1" as="geometry">
            <mxPoint x="1220" y="924.78" as="targetPoint" />
            <Array as="points">
              <mxPoint x="1310" y="874.78" />
              <mxPoint x="1240" y="874.78" />
            </Array>
          </mxGeometry>
        </mxCell>
        <mxCell id="TUf9E8LhpPjof6Dp3Csr-67" value="" style="pointerEvents=1;verticalLabelPosition=bottom;shadow=0;dashed=0;align=center;html=1;verticalAlign=top;shape=mxgraph.electrical.resistors.resistor_2;rotation=90;strokeWidth=2;" parent="1" vertex="1">
          <mxGeometry x="1260" y="791.3199999999999" width="100" height="19.29" as="geometry" />
        </mxCell>
        <mxCell id="TUf9E8LhpPjof6Dp3Csr-68" style="edgeStyle=orthogonalEdgeStyle;rounded=0;orthogonalLoop=1;jettySize=auto;html=1;exitX=0;exitY=0.8;exitDx=0;exitDy=0;entryX=0.58;entryY=0.135;entryDx=0;entryDy=0;entryPerimeter=0;strokeWidth=2;endArrow=none;endFill=0;" parent="1" source="TUf9E8LhpPjof6Dp3Csr-59" target="TUf9E8LhpPjof6Dp3Csr-63" edge="1">
          <mxGeometry relative="1" as="geometry" />
        </mxCell>
        <mxCell id="TUf9E8LhpPjof6Dp3Csr-77" style="edgeStyle=orthogonalEdgeStyle;rounded=0;orthogonalLoop=1;jettySize=auto;html=1;exitX=0;exitY=0.5;exitDx=0;exitDy=0;exitPerimeter=0;entryX=0.58;entryY=0.935;entryDx=0;entryDy=0;entryPerimeter=0;strokeWidth=2;endArrow=none;endFill=0;" parent="1" source="TUf9E8LhpPjof6Dp3Csr-69" target="TUf9E8LhpPjof6Dp3Csr-63" edge="1">
          <mxGeometry relative="1" as="geometry">
            <mxPoint x="960" y="894.78" as="targetPoint" />
            <Array as="points">
              <mxPoint x="1097" y="874.78" />
              <mxPoint x="949" y="874.78" />
            </Array>
          </mxGeometry>
        </mxCell>
        <mxCell id="TUf9E8LhpPjof6Dp3Csr-69" value="" style="pointerEvents=1;fillColor=strokeColor;verticalLabelPosition=bottom;shadow=0;dashed=0;align=center;html=1;verticalAlign=top;shape=mxgraph.electrical.diodes.diode;rotation=-90;strokeWidth=2;" parent="1" vertex="1">
          <mxGeometry x="1067" y="788.8500000000001" width="60" height="29.29" as="geometry" />
        </mxCell>
        <mxCell id="TUf9E8LhpPjof6Dp3Csr-79" style="edgeStyle=orthogonalEdgeStyle;rounded=0;orthogonalLoop=1;jettySize=auto;html=1;exitX=0;exitY=0.5;exitDx=0;exitDy=0;exitPerimeter=0;entryX=1;entryY=1;entryDx=0;entryDy=0;entryPerimeter=0;strokeWidth=2;endArrow=none;endFill=0;" parent="1" source="TUf9E8LhpPjof6Dp3Csr-16" target="TUf9E8LhpPjof6Dp3Csr-58" edge="1">
          <mxGeometry relative="1" as="geometry">
            <Array as="points">
              <mxPoint x="1240" y="734.78" />
            </Array>
          </mxGeometry>
        </mxCell>
        <mxCell id="TUf9E8LhpPjof6Dp3Csr-81" style="edgeStyle=orthogonalEdgeStyle;rounded=0;orthogonalLoop=1;jettySize=auto;html=1;exitX=1;exitY=0.5;exitDx=0;exitDy=0;exitPerimeter=0;entryX=0;entryY=0.5;entryDx=0;entryDy=0;entryPerimeter=0;strokeWidth=2;endArrow=none;endFill=0;" parent="1" source="TUf9E8LhpPjof6Dp3Csr-16" target="TUf9E8LhpPjof6Dp3Csr-69" edge="1">
          <mxGeometry relative="1" as="geometry">
            <Array as="points">
              <mxPoint x="1240" y="874.78" />
              <mxPoint x="1097" y="874.78" />
            </Array>
          </mxGeometry>
        </mxCell>
        <mxCell id="TUf9E8LhpPjof6Dp3Csr-86" style="edgeStyle=orthogonalEdgeStyle;rounded=0;orthogonalLoop=1;jettySize=auto;html=1;exitX=1;exitY=1;exitDx=0;exitDy=0;exitPerimeter=0;strokeWidth=2;endArrow=none;endFill=0;entryX=0;entryY=0.5;entryDx=0;entryDy=0;entryPerimeter=0;" parent="1" source="TUf9E8LhpPjof6Dp3Csr-58" target="TUf9E8LhpPjof6Dp3Csr-67" edge="1">
          <mxGeometry relative="1" as="geometry">
            <mxPoint x="1300" y="744.78" as="targetPoint" />
            <Array as="points">
              <mxPoint x="1260" y="734.78" />
              <mxPoint x="1310" y="734.78" />
            </Array>
          </mxGeometry>
        </mxCell>
        <mxCell id="TUf9E8LhpPjof6Dp3Csr-88" value="$$R_o$$" style="text;html=1;align=center;verticalAlign=middle;whiteSpace=wrap;rounded=0;fontSize=16;" parent="1" vertex="1">
          <mxGeometry x="1325" y="793.5" width="35" height="20" as="geometry" />
        </mxCell>
        <mxCell id="TUf9E8LhpPjof6Dp3Csr-89" value="$$L$$" style="text;html=1;align=center;verticalAlign=middle;whiteSpace=wrap;rounded=0;fontSize=16;" parent="1" vertex="1">
          <mxGeometry x="1152" y="739.21" width="35" height="20" as="geometry" />
        </mxCell>
        <mxCell id="TUf9E8LhpPjof6Dp3Csr-90" value="$$C$$" style="text;html=1;align=center;verticalAlign=middle;whiteSpace=wrap;rounded=0;fontSize=16;" parent="1" vertex="1">
          <mxGeometry x="1190" y="791.3199999999999" width="35" height="20" as="geometry" />
        </mxCell>
        <mxCell id="TUf9E8LhpPjof6Dp3Csr-115" value="" style="pointerEvents=1;verticalLabelPosition=bottom;shadow=0;dashed=0;align=center;html=1;verticalAlign=top;shape=mxgraph.electrical.capacitors.capacitor_1;strokeWidth=2;rotation=90;" parent="1" vertex="1">
          <mxGeometry x="1540" y="671.6800000000001" width="100" height="30" as="geometry" />
        </mxCell>
        <mxCell id="TUf9E8LhpPjof6Dp3Csr-117" value="" style="pointerEvents=1;verticalLabelPosition=bottom;shadow=0;dashed=0;align=center;html=1;verticalAlign=top;shape=mxgraph.electrical.inductors.inductor_3;rotation=0;strokeWidth=2;" parent="1" vertex="1">
          <mxGeometry x="1467" y="610" width="100" height="10" as="geometry" />
        </mxCell>
        <mxCell id="TUf9E8LhpPjof6Dp3Csr-122" style="edgeStyle=orthogonalEdgeStyle;rounded=0;orthogonalLoop=1;jettySize=auto;html=1;exitX=0.58;exitY=0.935;exitDx=0;exitDy=0;exitPerimeter=0;strokeWidth=2;endArrow=none;endFill=0;" parent="1" source="TUf9E8LhpPjof6Dp3Csr-123" edge="1">
          <mxGeometry relative="1" as="geometry">
            <mxPoint x="1439.047619047619" y="780.5" as="targetPoint" />
          </mxGeometry>
        </mxCell>
        <mxCell id="TUf9E8LhpPjof6Dp3Csr-123" value="" style="pointerEvents=1;verticalLabelPosition=bottom;shadow=0;dashed=0;align=center;html=1;verticalAlign=top;shape=mxgraph.electrical.signal_sources.dc_source_1;strokeWidth=2;" parent="1" vertex="1">
          <mxGeometry x="1410" y="658.9300000000001" width="50" height="55.5" as="geometry" />
        </mxCell>
        <mxCell id="TUf9E8LhpPjof6Dp3Csr-124" value="" style="endArrow=none;html=1;rounded=0;strokeWidth=2;" parent="1" edge="1">
          <mxGeometry width="50" height="50" relative="1" as="geometry">
            <mxPoint x="1429.0000000000002" y="780.9300000000001" as="sourcePoint" />
            <mxPoint x="1449.0000000000002" y="780.9300000000001" as="targetPoint" />
          </mxGeometry>
        </mxCell>
        <mxCell id="TUf9E8LhpPjof6Dp3Csr-125" value="" style="endArrow=none;html=1;rounded=0;strokeWidth=2;" parent="1" edge="1">
          <mxGeometry width="50" height="50" relative="1" as="geometry">
            <mxPoint x="1434.0000000000002" y="785.6700000000003" as="sourcePoint" />
            <mxPoint x="1444.0000000000002" y="785.6700000000003" as="targetPoint" />
          </mxGeometry>
        </mxCell>
        <mxCell id="TUf9E8LhpPjof6Dp3Csr-126" value="$$V_S$$" style="text;html=1;align=center;verticalAlign=middle;whiteSpace=wrap;rounded=0;fontSize=16;" parent="1" vertex="1">
          <mxGeometry x="1467" y="679.22" width="35" height="20" as="geometry" />
        </mxCell>
        <mxCell id="TUf9E8LhpPjof6Dp3Csr-127" style="edgeStyle=orthogonalEdgeStyle;rounded=0;orthogonalLoop=1;jettySize=auto;html=1;exitX=1;exitY=0.5;exitDx=0;exitDy=0;exitPerimeter=0;entryX=1;entryY=0.5;entryDx=0;entryDy=0;entryPerimeter=0;strokeWidth=2;endArrow=none;endFill=0;" parent="1" source="TUf9E8LhpPjof6Dp3Csr-128" target="TUf9E8LhpPjof6Dp3Csr-115" edge="1">
          <mxGeometry relative="1" as="geometry">
            <mxPoint x="1570" y="810.5" as="targetPoint" />
            <Array as="points">
              <mxPoint x="1660" y="760.5" />
              <mxPoint x="1590" y="760.5" />
            </Array>
          </mxGeometry>
        </mxCell>
        <mxCell id="TUf9E8LhpPjof6Dp3Csr-128" value="" style="pointerEvents=1;verticalLabelPosition=bottom;shadow=0;dashed=0;align=center;html=1;verticalAlign=top;shape=mxgraph.electrical.resistors.resistor_2;rotation=90;strokeWidth=2;" parent="1" vertex="1">
          <mxGeometry x="1610" y="677.04" width="100" height="19.29" as="geometry" />
        </mxCell>
        <mxCell id="TUf9E8LhpPjof6Dp3Csr-132" style="edgeStyle=orthogonalEdgeStyle;rounded=0;orthogonalLoop=1;jettySize=auto;html=1;exitX=0;exitY=0.5;exitDx=0;exitDy=0;exitPerimeter=0;entryX=1;entryY=1;entryDx=0;entryDy=0;entryPerimeter=0;strokeWidth=2;endArrow=none;endFill=0;" parent="1" source="TUf9E8LhpPjof6Dp3Csr-115" edge="1">
          <mxGeometry relative="1" as="geometry">
            <Array as="points">
              <mxPoint x="1590" y="620.5" />
            </Array>
            <mxPoint x="1569.5" y="620" as="targetPoint" />
          </mxGeometry>
        </mxCell>
        <mxCell id="TUf9E8LhpPjof6Dp3Csr-134" style="edgeStyle=orthogonalEdgeStyle;rounded=0;orthogonalLoop=1;jettySize=auto;html=1;exitX=1;exitY=1;exitDx=0;exitDy=0;exitPerimeter=0;strokeWidth=2;endArrow=none;endFill=0;entryX=0;entryY=0.5;entryDx=0;entryDy=0;entryPerimeter=0;" parent="1" source="TUf9E8LhpPjof6Dp3Csr-117" target="TUf9E8LhpPjof6Dp3Csr-128" edge="1">
          <mxGeometry relative="1" as="geometry">
            <mxPoint x="1650" y="630.5" as="targetPoint" />
            <Array as="points">
              <mxPoint x="1610" y="620.5" />
              <mxPoint x="1660" y="620.5" />
            </Array>
            <mxPoint x="1569.5" y="620" as="sourcePoint" />
          </mxGeometry>
        </mxCell>
        <mxCell id="TUf9E8LhpPjof6Dp3Csr-136" value="$$L$$" style="text;html=1;align=center;verticalAlign=middle;whiteSpace=wrap;rounded=0;fontSize=16;" parent="1" vertex="1">
          <mxGeometry x="1499.5" y="624.9300000000001" width="35" height="20" as="geometry" />
        </mxCell>
        <mxCell id="TUf9E8LhpPjof6Dp3Csr-137" value="$$C$$" style="text;html=1;align=center;verticalAlign=middle;whiteSpace=wrap;rounded=0;fontSize=16;" parent="1" vertex="1">
          <mxGeometry x="1540" y="677.04" width="35" height="20" as="geometry" />
        </mxCell>
        <mxCell id="TUf9E8LhpPjof6Dp3Csr-138" style="edgeStyle=orthogonalEdgeStyle;rounded=0;orthogonalLoop=1;jettySize=auto;html=1;exitX=0.58;exitY=0.135;exitDx=0;exitDy=0;exitPerimeter=0;entryX=0;entryY=1;entryDx=0;entryDy=0;entryPerimeter=0;strokeWidth=2;endArrow=none;endFill=0;" parent="1" source="TUf9E8LhpPjof6Dp3Csr-123" target="TUf9E8LhpPjof6Dp3Csr-117" edge="1">
          <mxGeometry relative="1" as="geometry">
            <Array as="points">
              <mxPoint x="1439" y="620.5" />
            </Array>
          </mxGeometry>
        </mxCell>
        <mxCell id="TUf9E8LhpPjof6Dp3Csr-140" style="edgeStyle=orthogonalEdgeStyle;rounded=0;orthogonalLoop=1;jettySize=auto;html=1;exitX=1;exitY=0.5;exitDx=0;exitDy=0;exitPerimeter=0;entryX=0.58;entryY=0.935;entryDx=0;entryDy=0;entryPerimeter=0;strokeWidth=2;endArrow=none;endFill=0;" parent="1" source="TUf9E8LhpPjof6Dp3Csr-115" target="TUf9E8LhpPjof6Dp3Csr-123" edge="1">
          <mxGeometry relative="1" as="geometry">
            <Array as="points">
              <mxPoint x="1590" y="760.5" />
              <mxPoint x="1439" y="760.5" />
            </Array>
          </mxGeometry>
        </mxCell>
        <mxCell id="TUf9E8LhpPjof6Dp3Csr-141" value="" style="pointerEvents=1;verticalLabelPosition=bottom;shadow=0;dashed=0;align=center;html=1;verticalAlign=top;shape=mxgraph.electrical.capacitors.capacitor_1;strokeWidth=2;rotation=90;" parent="1" vertex="1">
          <mxGeometry x="1540" y="881.1800000000001" width="100" height="30" as="geometry" />
        </mxCell>
        <mxCell id="TUf9E8LhpPjof6Dp3Csr-162" style="edgeStyle=orthogonalEdgeStyle;rounded=0;orthogonalLoop=1;jettySize=auto;html=1;exitX=0;exitY=1;exitDx=0;exitDy=0;exitPerimeter=0;strokeWidth=2;endArrow=none;endFill=0;" parent="1" source="TUf9E8LhpPjof6Dp3Csr-142" edge="1">
          <mxGeometry relative="1" as="geometry">
            <mxPoint x="1439" y="989.5" as="targetPoint" />
            <Array as="points">
              <mxPoint x="1439" y="829.5" />
            </Array>
          </mxGeometry>
        </mxCell>
        <mxCell id="TUf9E8LhpPjof6Dp3Csr-142" value="" style="pointerEvents=1;verticalLabelPosition=bottom;shadow=0;dashed=0;align=center;html=1;verticalAlign=top;shape=mxgraph.electrical.inductors.inductor_3;rotation=0;strokeWidth=2;" parent="1" vertex="1">
          <mxGeometry x="1464.5" y="819.5" width="100" height="10" as="geometry" />
        </mxCell>
        <mxCell id="TUf9E8LhpPjof6Dp3Csr-145" value="" style="endArrow=none;html=1;rounded=0;strokeWidth=2;" parent="1" edge="1">
          <mxGeometry width="50" height="50" relative="1" as="geometry">
            <mxPoint x="1429.5000000000002" y="990.4300000000001" as="sourcePoint" />
            <mxPoint x="1449.5000000000002" y="990.4300000000001" as="targetPoint" />
          </mxGeometry>
        </mxCell>
        <mxCell id="TUf9E8LhpPjof6Dp3Csr-146" value="" style="endArrow=none;html=1;rounded=0;strokeWidth=2;" parent="1" edge="1">
          <mxGeometry width="50" height="50" relative="1" as="geometry">
            <mxPoint x="1434.5000000000002" y="995.1700000000003" as="sourcePoint" />
            <mxPoint x="1444.5000000000002" y="995.1700000000003" as="targetPoint" />
          </mxGeometry>
        </mxCell>
        <mxCell id="TUf9E8LhpPjof6Dp3Csr-149" value="" style="pointerEvents=1;verticalLabelPosition=bottom;shadow=0;dashed=0;align=center;html=1;verticalAlign=top;shape=mxgraph.electrical.resistors.resistor_2;rotation=90;strokeWidth=2;" parent="1" vertex="1">
          <mxGeometry x="1607.5" y="886.54" width="100" height="19.29" as="geometry" />
        </mxCell>
        <mxCell id="TUf9E8LhpPjof6Dp3Csr-150" style="edgeStyle=orthogonalEdgeStyle;rounded=0;orthogonalLoop=1;jettySize=auto;html=1;exitX=0;exitY=0.5;exitDx=0;exitDy=0;exitPerimeter=0;entryX=1;entryY=1;entryDx=0;entryDy=0;entryPerimeter=0;strokeWidth=2;endArrow=none;endFill=0;" parent="1" source="TUf9E8LhpPjof6Dp3Csr-141" edge="1">
          <mxGeometry relative="1" as="geometry">
            <Array as="points">
              <mxPoint x="1590" y="830" />
            </Array>
            <mxPoint x="1567" y="829.5" as="targetPoint" />
          </mxGeometry>
        </mxCell>
        <mxCell id="TUf9E8LhpPjof6Dp3Csr-151" style="edgeStyle=orthogonalEdgeStyle;rounded=0;orthogonalLoop=1;jettySize=auto;html=1;exitX=1;exitY=1;exitDx=0;exitDy=0;exitPerimeter=0;strokeWidth=2;endArrow=none;endFill=0;entryX=0;entryY=0.5;entryDx=0;entryDy=0;entryPerimeter=0;" parent="1" source="TUf9E8LhpPjof6Dp3Csr-142" target="TUf9E8LhpPjof6Dp3Csr-149" edge="1">
          <mxGeometry relative="1" as="geometry">
            <mxPoint x="1647.5" y="840" as="targetPoint" />
            <Array as="points">
              <mxPoint x="1607.5" y="830" />
              <mxPoint x="1657.5" y="830" />
            </Array>
            <mxPoint x="1567" y="829.5" as="sourcePoint" />
          </mxGeometry>
        </mxCell>
        <mxCell id="TUf9E8LhpPjof6Dp3Csr-153" value="$$L$$" style="text;html=1;align=center;verticalAlign=middle;whiteSpace=wrap;rounded=0;fontSize=16;" parent="1" vertex="1">
          <mxGeometry x="1497" y="834.4300000000001" width="35" height="20" as="geometry" />
        </mxCell>
        <mxCell id="TUf9E8LhpPjof6Dp3Csr-154" value="$$C$$" style="text;html=1;align=center;verticalAlign=middle;whiteSpace=wrap;rounded=0;fontSize=16;" parent="1" vertex="1">
          <mxGeometry x="1537.5" y="886.54" width="35" height="20" as="geometry" />
        </mxCell>
        <mxCell id="TUf9E8LhpPjof6Dp3Csr-161" style="edgeStyle=orthogonalEdgeStyle;rounded=0;orthogonalLoop=1;jettySize=auto;html=1;exitX=0;exitY=1;exitDx=0;exitDy=0;exitPerimeter=0;entryX=1;entryY=0.5;entryDx=0;entryDy=0;entryPerimeter=0;strokeWidth=2;endArrow=none;endFill=0;" parent="1" source="TUf9E8LhpPjof6Dp3Csr-142" target="TUf9E8LhpPjof6Dp3Csr-141" edge="1">
          <mxGeometry relative="1" as="geometry">
            <Array as="points">
              <mxPoint x="1439" y="830" />
              <mxPoint x="1439" y="970" />
              <mxPoint x="1590" y="970" />
            </Array>
          </mxGeometry>
        </mxCell>
        <mxCell id="TUf9E8LhpPjof6Dp3Csr-163" value="" style="pointerEvents=1;verticalLabelPosition=bottom;shadow=0;dashed=0;align=center;html=1;verticalAlign=top;shape=mxgraph.electrical.capacitors.capacitor_1;strokeWidth=2;rotation=90;" parent="1" vertex="1">
          <mxGeometry x="1190" y="1210.75" width="100" height="30" as="geometry" />
        </mxCell>
        <mxCell id="TUf9E8LhpPjof6Dp3Csr-165" value="" style="pointerEvents=1;verticalLabelPosition=bottom;shadow=0;dashed=0;align=center;html=1;verticalAlign=top;shape=mxgraph.electrical.inductors.inductor_3;rotation=0;strokeWidth=2;" parent="1" vertex="1">
          <mxGeometry x="978" y="1149.07" width="100" height="10" as="geometry" />
        </mxCell>
        <mxCell id="TUf9E8LhpPjof6Dp3Csr-168" value="" style="endArrow=none;html=1;rounded=0;strokeWidth=2;" parent="1" edge="1">
          <mxGeometry width="50" height="50" relative="1" as="geometry">
            <mxPoint x="1078" y="1229.8999999999999" as="sourcePoint" />
            <mxPoint x="1088" y="1229.8999999999999" as="targetPoint" />
          </mxGeometry>
        </mxCell>
        <mxCell id="TUf9E8LhpPjof6Dp3Csr-169" value="$$CLK$$" style="text;html=1;align=center;verticalAlign=middle;whiteSpace=wrap;rounded=0;fontSize=12;" parent="1" vertex="1">
          <mxGeometry x="1039.5" y="1220" width="35" height="20" as="geometry" />
        </mxCell>
        <mxCell id="TUf9E8LhpPjof6Dp3Csr-170" style="edgeStyle=orthogonalEdgeStyle;rounded=0;orthogonalLoop=1;jettySize=auto;html=1;exitX=0.58;exitY=0.935;exitDx=0;exitDy=0;exitPerimeter=0;strokeWidth=2;endArrow=none;endFill=0;" parent="1" source="TUf9E8LhpPjof6Dp3Csr-171" edge="1">
          <mxGeometry relative="1" as="geometry">
            <mxPoint x="949.047619047619" y="1319.57" as="targetPoint" />
          </mxGeometry>
        </mxCell>
        <mxCell id="TUf9E8LhpPjof6Dp3Csr-171" value="" style="pointerEvents=1;verticalLabelPosition=bottom;shadow=0;dashed=0;align=center;html=1;verticalAlign=top;shape=mxgraph.electrical.signal_sources.dc_source_1;strokeWidth=2;" parent="1" vertex="1">
          <mxGeometry x="920" y="1198" width="50" height="55.5" as="geometry" />
        </mxCell>
        <mxCell id="TUf9E8LhpPjof6Dp3Csr-172" value="" style="endArrow=none;html=1;rounded=0;strokeWidth=2;" parent="1" edge="1">
          <mxGeometry width="50" height="50" relative="1" as="geometry">
            <mxPoint x="939.0000000000002" y="1320" as="sourcePoint" />
            <mxPoint x="959.0000000000002" y="1320" as="targetPoint" />
          </mxGeometry>
        </mxCell>
        <mxCell id="TUf9E8LhpPjof6Dp3Csr-173" value="" style="endArrow=none;html=1;rounded=0;strokeWidth=2;" parent="1" edge="1">
          <mxGeometry width="50" height="50" relative="1" as="geometry">
            <mxPoint x="944.0000000000002" y="1324.7400000000002" as="sourcePoint" />
            <mxPoint x="954.0000000000002" y="1324.7400000000002" as="targetPoint" />
          </mxGeometry>
        </mxCell>
        <mxCell id="TUf9E8LhpPjof6Dp3Csr-174" value="$$V_S$$" style="text;html=1;align=center;verticalAlign=middle;whiteSpace=wrap;rounded=0;fontSize=16;" parent="1" vertex="1">
          <mxGeometry x="977" y="1218.29" width="35" height="20" as="geometry" />
        </mxCell>
        <mxCell id="TUf9E8LhpPjof6Dp3Csr-176" value="" style="pointerEvents=1;verticalLabelPosition=bottom;shadow=0;dashed=0;align=center;html=1;verticalAlign=top;shape=mxgraph.electrical.resistors.resistor_2;rotation=90;strokeWidth=2;" parent="1" vertex="1">
          <mxGeometry x="1260" y="1216.11" width="100" height="19.29" as="geometry" />
        </mxCell>
        <mxCell id="TUf9E8LhpPjof6Dp3Csr-179" value="" style="pointerEvents=1;fillColor=strokeColor;verticalLabelPosition=bottom;shadow=0;dashed=0;align=center;html=1;verticalAlign=top;shape=mxgraph.electrical.diodes.diode;rotation=0;strokeWidth=2;" parent="1" vertex="1">
          <mxGeometry x="1139.5" y="1144.4200000000003" width="60" height="29.29" as="geometry" />
        </mxCell>
        <mxCell id="TUf9E8LhpPjof6Dp3Csr-183" value="$$R_o$$" style="text;html=1;align=center;verticalAlign=middle;whiteSpace=wrap;rounded=0;fontSize=16;" parent="1" vertex="1">
          <mxGeometry x="1325" y="1218.29" width="35" height="20" as="geometry" />
        </mxCell>
        <mxCell id="TUf9E8LhpPjof6Dp3Csr-184" value="$$L$$" style="text;html=1;align=center;verticalAlign=middle;whiteSpace=wrap;rounded=0;fontSize=16;" parent="1" vertex="1">
          <mxGeometry x="1008.5" y="1163" width="35" height="20" as="geometry" />
        </mxCell>
        <mxCell id="TUf9E8LhpPjof6Dp3Csr-185" value="$$C$$" style="text;html=1;align=center;verticalAlign=middle;whiteSpace=wrap;rounded=0;fontSize=16;" parent="1" vertex="1">
          <mxGeometry x="1190" y="1216.11" width="35" height="20" as="geometry" />
        </mxCell>
        <mxCell id="TUf9E8LhpPjof6Dp3Csr-189" value="" style="html=1;shape=mxgraph.electrical.electro-mechanical.singleSwitch;aspect=fixed;elSwitchState=off;strokeWidth=2;rotation=90;flipV=0;" parent="1" vertex="1">
          <mxGeometry x="1059" y="1218" width="90" height="24" as="geometry" />
        </mxCell>
        <mxCell id="TUf9E8LhpPjof6Dp3Csr-191" style="edgeStyle=orthogonalEdgeStyle;rounded=0;orthogonalLoop=1;jettySize=auto;html=1;exitX=0.58;exitY=0.135;exitDx=0;exitDy=0;exitPerimeter=0;entryX=0;entryY=1;entryDx=0;entryDy=0;entryPerimeter=0;strokeWidth=2;endArrow=none;endFill=0;" parent="1" source="TUf9E8LhpPjof6Dp3Csr-171" target="TUf9E8LhpPjof6Dp3Csr-165" edge="1">
          <mxGeometry relative="1" as="geometry">
            <Array as="points">
              <mxPoint x="949" y="1159" />
            </Array>
          </mxGeometry>
        </mxCell>
        <mxCell id="TUf9E8LhpPjof6Dp3Csr-192" style="edgeStyle=orthogonalEdgeStyle;rounded=0;orthogonalLoop=1;jettySize=auto;html=1;exitX=1;exitY=1;exitDx=0;exitDy=0;exitPerimeter=0;entryX=0;entryY=0.5;entryDx=0;entryDy=0;entryPerimeter=0;strokeWidth=2;endArrow=none;endFill=0;" parent="1" source="TUf9E8LhpPjof6Dp3Csr-165" target="TUf9E8LhpPjof6Dp3Csr-179" edge="1">
          <mxGeometry relative="1" as="geometry">
            <Array as="points">
              <mxPoint x="1100" y="1160" />
              <mxPoint x="1100" y="1160" />
            </Array>
          </mxGeometry>
        </mxCell>
        <mxCell id="TUf9E8LhpPjof6Dp3Csr-193" style="edgeStyle=orthogonalEdgeStyle;rounded=0;orthogonalLoop=1;jettySize=auto;html=1;exitX=1;exitY=0.5;exitDx=0;exitDy=0;exitPerimeter=0;entryX=0;entryY=0.5;entryDx=0;entryDy=0;entryPerimeter=0;strokeWidth=2;endArrow=none;endFill=0;" parent="1" source="TUf9E8LhpPjof6Dp3Csr-179" target="TUf9E8LhpPjof6Dp3Csr-163" edge="1">
          <mxGeometry relative="1" as="geometry">
            <Array as="points">
              <mxPoint x="1240" y="1159" />
            </Array>
          </mxGeometry>
        </mxCell>
        <mxCell id="TUf9E8LhpPjof6Dp3Csr-195" style="edgeStyle=orthogonalEdgeStyle;rounded=0;orthogonalLoop=1;jettySize=auto;html=1;exitX=1;exitY=0.5;exitDx=0;exitDy=0;exitPerimeter=0;entryX=0;entryY=0.5;entryDx=0;entryDy=0;entryPerimeter=0;strokeWidth=2;endArrow=none;endFill=0;" parent="1" source="TUf9E8LhpPjof6Dp3Csr-179" target="TUf9E8LhpPjof6Dp3Csr-176" edge="1">
          <mxGeometry relative="1" as="geometry">
            <Array as="points">
              <mxPoint x="1250" y="1159" />
              <mxPoint x="1310" y="1160" />
            </Array>
          </mxGeometry>
        </mxCell>
        <mxCell id="TUf9E8LhpPjof6Dp3Csr-197" style="edgeStyle=orthogonalEdgeStyle;rounded=0;orthogonalLoop=1;jettySize=auto;html=1;exitX=0;exitY=0.8;exitDx=0;exitDy=0;entryX=0;entryY=0.5;entryDx=0;entryDy=0;entryPerimeter=0;strokeWidth=2;endArrow=none;endFill=0;" parent="1" source="TUf9E8LhpPjof6Dp3Csr-189" target="TUf9E8LhpPjof6Dp3Csr-179" edge="1">
          <mxGeometry relative="1" as="geometry" />
        </mxCell>
        <mxCell id="TUf9E8LhpPjof6Dp3Csr-198" style="edgeStyle=orthogonalEdgeStyle;rounded=0;orthogonalLoop=1;jettySize=auto;html=1;exitX=1;exitY=0.8;exitDx=0;exitDy=0;entryX=0.58;entryY=0.935;entryDx=0;entryDy=0;entryPerimeter=0;strokeWidth=2;endArrow=none;endFill=0;" parent="1" source="TUf9E8LhpPjof6Dp3Csr-189" target="TUf9E8LhpPjof6Dp3Csr-171" edge="1">
          <mxGeometry relative="1" as="geometry">
            <Array as="points">
              <mxPoint x="1097" y="1300" />
              <mxPoint x="949" y="1300" />
            </Array>
          </mxGeometry>
        </mxCell>
        <mxCell id="TUf9E8LhpPjof6Dp3Csr-199" style="edgeStyle=orthogonalEdgeStyle;rounded=0;orthogonalLoop=1;jettySize=auto;html=1;exitX=1;exitY=0.8;exitDx=0;exitDy=0;entryX=1;entryY=0.5;entryDx=0;entryDy=0;entryPerimeter=0;strokeWidth=2;endArrow=none;endFill=0;" parent="1" source="TUf9E8LhpPjof6Dp3Csr-189" target="TUf9E8LhpPjof6Dp3Csr-163" edge="1">
          <mxGeometry relative="1" as="geometry">
            <Array as="points">
              <mxPoint x="1097" y="1300" />
              <mxPoint x="1240" y="1300" />
            </Array>
          </mxGeometry>
        </mxCell>
        <mxCell id="TUf9E8LhpPjof6Dp3Csr-201" style="edgeStyle=orthogonalEdgeStyle;rounded=0;orthogonalLoop=1;jettySize=auto;html=1;exitX=1;exitY=0.5;exitDx=0;exitDy=0;exitPerimeter=0;entryX=1;entryY=0.5;entryDx=0;entryDy=0;entryPerimeter=0;strokeWidth=2;endArrow=none;endFill=0;" parent="1" source="TUf9E8LhpPjof6Dp3Csr-163" target="TUf9E8LhpPjof6Dp3Csr-176" edge="1">
          <mxGeometry relative="1" as="geometry">
            <Array as="points">
              <mxPoint x="1240" y="1300" />
              <mxPoint x="1310" y="1300" />
            </Array>
          </mxGeometry>
        </mxCell>
        <mxCell id="TUf9E8LhpPjof6Dp3Csr-202" value="" style="pointerEvents=1;verticalLabelPosition=bottom;shadow=0;dashed=0;align=center;html=1;verticalAlign=top;shape=mxgraph.electrical.capacitors.capacitor_1;strokeWidth=2;rotation=90;" parent="1" vertex="1">
          <mxGeometry x="1540" y="1301.68" width="100" height="30" as="geometry" />
        </mxCell>
        <mxCell id="TUf9E8LhpPjof6Dp3Csr-203" value="" style="pointerEvents=1;verticalLabelPosition=bottom;shadow=0;dashed=0;align=center;html=1;verticalAlign=top;shape=mxgraph.electrical.inductors.inductor_3;rotation=0;strokeWidth=2;" parent="1" vertex="1">
          <mxGeometry x="1467" y="1240" width="100" height="10" as="geometry" />
        </mxCell>
        <mxCell id="TUf9E8LhpPjof6Dp3Csr-204" style="edgeStyle=orthogonalEdgeStyle;rounded=0;orthogonalLoop=1;jettySize=auto;html=1;exitX=0.58;exitY=0.935;exitDx=0;exitDy=0;exitPerimeter=0;strokeWidth=2;endArrow=none;endFill=0;" parent="1" source="TUf9E8LhpPjof6Dp3Csr-205" edge="1">
          <mxGeometry relative="1" as="geometry">
            <mxPoint x="1439.047619047619" y="1410.5" as="targetPoint" />
          </mxGeometry>
        </mxCell>
        <mxCell id="TUf9E8LhpPjof6Dp3Csr-205" value="" style="pointerEvents=1;verticalLabelPosition=bottom;shadow=0;dashed=0;align=center;html=1;verticalAlign=top;shape=mxgraph.electrical.signal_sources.dc_source_1;strokeWidth=2;" parent="1" vertex="1">
          <mxGeometry x="1410" y="1288.93" width="50" height="55.5" as="geometry" />
        </mxCell>
        <mxCell id="TUf9E8LhpPjof6Dp3Csr-206" value="" style="endArrow=none;html=1;rounded=0;strokeWidth=2;" parent="1" edge="1">
          <mxGeometry width="50" height="50" relative="1" as="geometry">
            <mxPoint x="1429.0000000000002" y="1410.93" as="sourcePoint" />
            <mxPoint x="1449.0000000000002" y="1410.93" as="targetPoint" />
          </mxGeometry>
        </mxCell>
        <mxCell id="TUf9E8LhpPjof6Dp3Csr-207" value="" style="endArrow=none;html=1;rounded=0;strokeWidth=2;" parent="1" edge="1">
          <mxGeometry width="50" height="50" relative="1" as="geometry">
            <mxPoint x="1434.0000000000002" y="1415.6700000000003" as="sourcePoint" />
            <mxPoint x="1444.0000000000002" y="1415.6700000000003" as="targetPoint" />
          </mxGeometry>
        </mxCell>
        <mxCell id="TUf9E8LhpPjof6Dp3Csr-208" value="$$V_S$$" style="text;html=1;align=center;verticalAlign=middle;whiteSpace=wrap;rounded=0;fontSize=16;" parent="1" vertex="1">
          <mxGeometry x="1467" y="1309.22" width="35" height="20" as="geometry" />
        </mxCell>
        <mxCell id="TUf9E8LhpPjof6Dp3Csr-209" style="edgeStyle=orthogonalEdgeStyle;rounded=0;orthogonalLoop=1;jettySize=auto;html=1;exitX=1;exitY=0.5;exitDx=0;exitDy=0;exitPerimeter=0;entryX=1;entryY=0.5;entryDx=0;entryDy=0;entryPerimeter=0;strokeWidth=2;endArrow=none;endFill=0;" parent="1" source="TUf9E8LhpPjof6Dp3Csr-210" target="TUf9E8LhpPjof6Dp3Csr-202" edge="1">
          <mxGeometry relative="1" as="geometry">
            <mxPoint x="1570" y="1440.5" as="targetPoint" />
            <Array as="points">
              <mxPoint x="1660" y="1390.5" />
              <mxPoint x="1590" y="1390.5" />
            </Array>
          </mxGeometry>
        </mxCell>
        <mxCell id="TUf9E8LhpPjof6Dp3Csr-210" value="" style="pointerEvents=1;verticalLabelPosition=bottom;shadow=0;dashed=0;align=center;html=1;verticalAlign=top;shape=mxgraph.electrical.resistors.resistor_2;rotation=90;strokeWidth=2;" parent="1" vertex="1">
          <mxGeometry x="1610" y="1307.04" width="100" height="19.29" as="geometry" />
        </mxCell>
        <mxCell id="TUf9E8LhpPjof6Dp3Csr-211" style="edgeStyle=orthogonalEdgeStyle;rounded=0;orthogonalLoop=1;jettySize=auto;html=1;exitX=0;exitY=0.5;exitDx=0;exitDy=0;exitPerimeter=0;entryX=1;entryY=1;entryDx=0;entryDy=0;entryPerimeter=0;strokeWidth=2;endArrow=none;endFill=0;" parent="1" source="TUf9E8LhpPjof6Dp3Csr-202" edge="1">
          <mxGeometry relative="1" as="geometry">
            <Array as="points">
              <mxPoint x="1590" y="1250.5" />
            </Array>
            <mxPoint x="1569.5" y="1250" as="targetPoint" />
          </mxGeometry>
        </mxCell>
        <mxCell id="TUf9E8LhpPjof6Dp3Csr-212" style="edgeStyle=orthogonalEdgeStyle;rounded=0;orthogonalLoop=1;jettySize=auto;html=1;exitX=1;exitY=1;exitDx=0;exitDy=0;exitPerimeter=0;strokeWidth=2;endArrow=none;endFill=0;entryX=0;entryY=0.5;entryDx=0;entryDy=0;entryPerimeter=0;" parent="1" source="TUf9E8LhpPjof6Dp3Csr-203" target="TUf9E8LhpPjof6Dp3Csr-210" edge="1">
          <mxGeometry relative="1" as="geometry">
            <mxPoint x="1650" y="1260.5" as="targetPoint" />
            <Array as="points">
              <mxPoint x="1610" y="1250.5" />
              <mxPoint x="1660" y="1250.5" />
            </Array>
            <mxPoint x="1569.5" y="1250" as="sourcePoint" />
          </mxGeometry>
        </mxCell>
        <mxCell id="TUf9E8LhpPjof6Dp3Csr-213" value="$$L$$" style="text;html=1;align=center;verticalAlign=middle;whiteSpace=wrap;rounded=0;fontSize=16;" parent="1" vertex="1">
          <mxGeometry x="1499.5" y="1254.93" width="35" height="20" as="geometry" />
        </mxCell>
        <mxCell id="TUf9E8LhpPjof6Dp3Csr-214" value="$$C$$" style="text;html=1;align=center;verticalAlign=middle;whiteSpace=wrap;rounded=0;fontSize=16;" parent="1" vertex="1">
          <mxGeometry x="1540" y="1307.04" width="35" height="20" as="geometry" />
        </mxCell>
        <mxCell id="TUf9E8LhpPjof6Dp3Csr-215" style="edgeStyle=orthogonalEdgeStyle;rounded=0;orthogonalLoop=1;jettySize=auto;html=1;exitX=0.58;exitY=0.135;exitDx=0;exitDy=0;exitPerimeter=0;entryX=0;entryY=1;entryDx=0;entryDy=0;entryPerimeter=0;strokeWidth=2;endArrow=none;endFill=0;" parent="1" source="TUf9E8LhpPjof6Dp3Csr-205" target="TUf9E8LhpPjof6Dp3Csr-203" edge="1">
          <mxGeometry relative="1" as="geometry">
            <Array as="points">
              <mxPoint x="1439" y="1250.5" />
            </Array>
          </mxGeometry>
        </mxCell>
        <mxCell id="TUf9E8LhpPjof6Dp3Csr-216" style="edgeStyle=orthogonalEdgeStyle;rounded=0;orthogonalLoop=1;jettySize=auto;html=1;exitX=1;exitY=0.5;exitDx=0;exitDy=0;exitPerimeter=0;entryX=0.58;entryY=0.935;entryDx=0;entryDy=0;entryPerimeter=0;strokeWidth=2;endArrow=none;endFill=0;" parent="1" source="TUf9E8LhpPjof6Dp3Csr-202" target="TUf9E8LhpPjof6Dp3Csr-205" edge="1">
          <mxGeometry relative="1" as="geometry">
            <Array as="points">
              <mxPoint x="1590" y="1390.5" />
              <mxPoint x="1439" y="1390.5" />
            </Array>
          </mxGeometry>
        </mxCell>
        <mxCell id="TUf9E8LhpPjof6Dp3Csr-217" value="" style="pointerEvents=1;verticalLabelPosition=bottom;shadow=0;dashed=0;align=center;html=1;verticalAlign=top;shape=mxgraph.electrical.inductors.inductor_3;rotation=0;strokeWidth=2;" parent="1" vertex="1">
          <mxGeometry x="1468" y="1034.21" width="100" height="10" as="geometry" />
        </mxCell>
        <mxCell id="TUf9E8LhpPjof6Dp3Csr-220" style="edgeStyle=orthogonalEdgeStyle;rounded=0;orthogonalLoop=1;jettySize=auto;html=1;exitX=0.58;exitY=0.935;exitDx=0;exitDy=0;exitPerimeter=0;strokeWidth=2;endArrow=none;endFill=0;" parent="1" source="TUf9E8LhpPjof6Dp3Csr-221" edge="1">
          <mxGeometry relative="1" as="geometry">
            <mxPoint x="1439.047619047619" y="1204.71" as="targetPoint" />
          </mxGeometry>
        </mxCell>
        <mxCell id="TUf9E8LhpPjof6Dp3Csr-221" value="" style="pointerEvents=1;verticalLabelPosition=bottom;shadow=0;dashed=0;align=center;html=1;verticalAlign=top;shape=mxgraph.electrical.signal_sources.dc_source_1;strokeWidth=2;" parent="1" vertex="1">
          <mxGeometry x="1410" y="1083.14" width="50" height="55.5" as="geometry" />
        </mxCell>
        <mxCell id="TUf9E8LhpPjof6Dp3Csr-222" value="" style="endArrow=none;html=1;rounded=0;strokeWidth=2;" parent="1" edge="1">
          <mxGeometry width="50" height="50" relative="1" as="geometry">
            <mxPoint x="1429.0000000000002" y="1205.14" as="sourcePoint" />
            <mxPoint x="1449.0000000000002" y="1205.14" as="targetPoint" />
          </mxGeometry>
        </mxCell>
        <mxCell id="TUf9E8LhpPjof6Dp3Csr-223" value="" style="endArrow=none;html=1;rounded=0;strokeWidth=2;" parent="1" edge="1">
          <mxGeometry width="50" height="50" relative="1" as="geometry">
            <mxPoint x="1434.0000000000002" y="1209.8800000000003" as="sourcePoint" />
            <mxPoint x="1444.0000000000002" y="1209.8800000000003" as="targetPoint" />
          </mxGeometry>
        </mxCell>
        <mxCell id="TUf9E8LhpPjof6Dp3Csr-224" value="$$V_S$$" style="text;html=1;align=center;verticalAlign=middle;whiteSpace=wrap;rounded=0;fontSize=16;" parent="1" vertex="1">
          <mxGeometry x="1467" y="1103.43" width="35" height="20" as="geometry" />
        </mxCell>
        <mxCell id="TUf9E8LhpPjof6Dp3Csr-225" value="$$L$$" style="text;html=1;align=center;verticalAlign=middle;whiteSpace=wrap;rounded=0;fontSize=16;" parent="1" vertex="1">
          <mxGeometry x="1498.5" y="1048.14" width="35" height="20" as="geometry" />
        </mxCell>
        <mxCell id="TUf9E8LhpPjof6Dp3Csr-227" style="edgeStyle=orthogonalEdgeStyle;rounded=0;orthogonalLoop=1;jettySize=auto;html=1;exitX=0.58;exitY=0.135;exitDx=0;exitDy=0;exitPerimeter=0;entryX=0;entryY=1;entryDx=0;entryDy=0;entryPerimeter=0;strokeWidth=2;endArrow=none;endFill=0;" parent="1" source="TUf9E8LhpPjof6Dp3Csr-221" target="TUf9E8LhpPjof6Dp3Csr-217" edge="1">
          <mxGeometry relative="1" as="geometry">
            <Array as="points">
              <mxPoint x="1439" y="1044.14" />
            </Array>
          </mxGeometry>
        </mxCell>
        <mxCell id="TUf9E8LhpPjof6Dp3Csr-228" style="edgeStyle=orthogonalEdgeStyle;rounded=0;orthogonalLoop=1;jettySize=auto;html=1;exitX=1;exitY=1;exitDx=0;exitDy=0;entryX=0.58;entryY=0.935;entryDx=0;entryDy=0;entryPerimeter=0;strokeWidth=2;endArrow=none;endFill=0;exitPerimeter=0;" parent="1" source="TUf9E8LhpPjof6Dp3Csr-217" target="TUf9E8LhpPjof6Dp3Csr-221" edge="1">
          <mxGeometry relative="1" as="geometry">
            <Array as="points">
              <mxPoint x="1590" y="1044" />
              <mxPoint x="1590" y="1185" />
              <mxPoint x="1439" y="1185" />
            </Array>
            <mxPoint x="1586.8000000000002" y="1160.14" as="sourcePoint" />
          </mxGeometry>
        </mxCell>
        <mxCell id="TUf9E8LhpPjof6Dp3Csr-231" style="edgeStyle=orthogonalEdgeStyle;rounded=0;orthogonalLoop=1;jettySize=auto;html=1;exitX=1;exitY=0.5;exitDx=0;exitDy=0;exitPerimeter=0;entryX=1;entryY=0.5;entryDx=0;entryDy=0;entryPerimeter=0;strokeWidth=2;endArrow=none;endFill=0;" parent="1" source="TUf9E8LhpPjof6Dp3Csr-149" target="TUf9E8LhpPjof6Dp3Csr-141" edge="1">
          <mxGeometry relative="1" as="geometry">
            <Array as="points">
              <mxPoint x="1658" y="970" />
              <mxPoint x="1590" y="970" />
            </Array>
          </mxGeometry>
        </mxCell>
        <mxCell id="TUf9E8LhpPjof6Dp3Csr-232" value="" style="pointerEvents=1;verticalLabelPosition=bottom;shadow=0;dashed=0;align=center;html=1;verticalAlign=top;shape=mxgraph.electrical.capacitors.capacitor_1;strokeWidth=2;rotation=90;" parent="1" vertex="1">
          <mxGeometry x="1595" y="1095.72" width="100" height="30" as="geometry" />
        </mxCell>
        <mxCell id="TUf9E8LhpPjof6Dp3Csr-233" value="" style="pointerEvents=1;verticalLabelPosition=bottom;shadow=0;dashed=0;align=center;html=1;verticalAlign=top;shape=mxgraph.electrical.resistors.resistor_2;rotation=90;strokeWidth=2;" parent="1" vertex="1">
          <mxGeometry x="1665" y="1101.08" width="100" height="19.29" as="geometry" />
        </mxCell>
        <mxCell id="TUf9E8LhpPjof6Dp3Csr-235" value="$$C$$" style="text;html=1;align=center;verticalAlign=middle;whiteSpace=wrap;rounded=0;fontSize=16;" parent="1" vertex="1">
          <mxGeometry x="1642.5" y="1120.37" width="35" height="20" as="geometry" />
        </mxCell>
        <mxCell id="TUf9E8LhpPjof6Dp3Csr-236" style="edgeStyle=orthogonalEdgeStyle;rounded=0;orthogonalLoop=1;jettySize=auto;html=1;entryX=0;entryY=0.5;entryDx=0;entryDy=0;entryPerimeter=0;strokeWidth=2;endArrow=none;endFill=0;exitX=0;exitY=0.5;exitDx=0;exitDy=0;exitPerimeter=0;" parent="1" source="TUf9E8LhpPjof6Dp3Csr-233" target="TUf9E8LhpPjof6Dp3Csr-232" edge="1">
          <mxGeometry relative="1" as="geometry">
            <mxPoint x="1605" y="1052" as="sourcePoint" />
            <Array as="points">
              <mxPoint x="1715" y="1044" />
              <mxPoint x="1645" y="1044" />
            </Array>
          </mxGeometry>
        </mxCell>
        <mxCell id="TUf9E8LhpPjof6Dp3Csr-238" style="edgeStyle=orthogonalEdgeStyle;rounded=0;orthogonalLoop=1;jettySize=auto;html=1;exitX=1;exitY=0.5;exitDx=0;exitDy=0;exitPerimeter=0;entryX=1;entryY=0.5;entryDx=0;entryDy=0;entryPerimeter=0;strokeWidth=2;endArrow=none;endFill=0;" parent="1" source="TUf9E8LhpPjof6Dp3Csr-232" target="TUf9E8LhpPjof6Dp3Csr-233" edge="1">
          <mxGeometry relative="1" as="geometry">
            <Array as="points">
              <mxPoint x="1645" y="1184.97" />
              <mxPoint x="1715" y="1184.97" />
            </Array>
          </mxGeometry>
        </mxCell>
        <mxCell id="g_v1NY4DX-FA3dxCrucZ-1" value="$$R_o$$" style="text;html=1;align=center;verticalAlign=middle;whiteSpace=wrap;rounded=0;fontSize=16;" vertex="1" parent="1">
          <mxGeometry x="1675" y="679.22" width="35" height="20" as="geometry" />
        </mxCell>
        <mxCell id="g_v1NY4DX-FA3dxCrucZ-2" value="$$R_o$$" style="text;html=1;align=center;verticalAlign=middle;whiteSpace=wrap;rounded=0;fontSize=16;" vertex="1" parent="1">
          <mxGeometry x="1672.5" y="890" width="35" height="20" as="geometry" />
        </mxCell>
        <mxCell id="g_v1NY4DX-FA3dxCrucZ-3" value="$$R_o$$" style="text;html=1;align=center;verticalAlign=middle;whiteSpace=wrap;rounded=0;fontSize=16;" vertex="1" parent="1">
          <mxGeometry x="1730" y="1103.43" width="35" height="20" as="geometry" />
        </mxCell>
        <mxCell id="g_v1NY4DX-FA3dxCrucZ-4" value="$$R_o$$" style="text;html=1;align=center;verticalAlign=middle;whiteSpace=wrap;rounded=0;fontSize=16;" vertex="1" parent="1">
          <mxGeometry x="1677.5" y="1309.22" width="35" height="20" as="geometry" />
        </mxCell>
        <mxCell id="g_v1NY4DX-FA3dxCrucZ-28" value="" style="pointerEvents=1;verticalLabelPosition=bottom;shadow=0;dashed=0;align=center;html=1;verticalAlign=top;shape=mxgraph.electrical.capacitors.capacitor_1;strokeWidth=2;rotation=90;" vertex="1" parent="1">
          <mxGeometry x="1190" y="1616.33" width="100" height="30" as="geometry" />
        </mxCell>
        <mxCell id="g_v1NY4DX-FA3dxCrucZ-29" value="" style="pointerEvents=1;verticalLabelPosition=bottom;shadow=0;dashed=0;align=center;html=1;verticalAlign=top;shape=mxgraph.electrical.inductors.inductor_3;rotation=90;strokeWidth=2;" vertex="1" parent="1">
          <mxGeometry x="1052" y="1631.6899999999996" width="100" height="10" as="geometry" />
        </mxCell>
        <mxCell id="g_v1NY4DX-FA3dxCrucZ-30" value="" style="endArrow=none;html=1;rounded=0;strokeWidth=2;" edge="1" parent="1">
          <mxGeometry width="50" height="50" relative="1" as="geometry">
            <mxPoint x="1021.83" y="1568.58" as="sourcePoint" />
            <mxPoint x="1021.83" y="1578.58" as="targetPoint" />
          </mxGeometry>
        </mxCell>
        <mxCell id="g_v1NY4DX-FA3dxCrucZ-31" value="$$CLK$$" style="text;html=1;align=center;verticalAlign=middle;whiteSpace=wrap;rounded=0;fontSize=12;" vertex="1" parent="1">
          <mxGeometry x="1004.5" y="1580" width="35" height="20" as="geometry" />
        </mxCell>
        <mxCell id="g_v1NY4DX-FA3dxCrucZ-32" style="edgeStyle=orthogonalEdgeStyle;rounded=0;orthogonalLoop=1;jettySize=auto;html=1;exitX=0.58;exitY=0.935;exitDx=0;exitDy=0;exitPerimeter=0;strokeWidth=2;endArrow=none;endFill=0;" edge="1" parent="1" source="g_v1NY4DX-FA3dxCrucZ-33">
          <mxGeometry relative="1" as="geometry">
            <mxPoint x="949.047619047619" y="1725.1499999999999" as="targetPoint" />
          </mxGeometry>
        </mxCell>
        <mxCell id="g_v1NY4DX-FA3dxCrucZ-51" style="edgeStyle=orthogonalEdgeStyle;rounded=0;orthogonalLoop=1;jettySize=auto;html=1;exitX=0.58;exitY=0.135;exitDx=0;exitDy=0;exitPerimeter=0;entryX=0;entryY=0.8;entryDx=0;entryDy=0;strokeWidth=2;endArrow=none;endFill=0;" edge="1" parent="1" source="g_v1NY4DX-FA3dxCrucZ-33" target="g_v1NY4DX-FA3dxCrucZ-42">
          <mxGeometry relative="1" as="geometry">
            <Array as="points">
              <mxPoint x="949" y="1564" />
            </Array>
          </mxGeometry>
        </mxCell>
        <mxCell id="g_v1NY4DX-FA3dxCrucZ-33" value="" style="pointerEvents=1;verticalLabelPosition=bottom;shadow=0;dashed=0;align=center;html=1;verticalAlign=top;shape=mxgraph.electrical.signal_sources.dc_source_1;strokeWidth=2;" vertex="1" parent="1">
          <mxGeometry x="920" y="1603.58" width="50" height="55.5" as="geometry" />
        </mxCell>
        <mxCell id="g_v1NY4DX-FA3dxCrucZ-34" value="" style="endArrow=none;html=1;rounded=0;strokeWidth=2;" edge="1" parent="1">
          <mxGeometry width="50" height="50" relative="1" as="geometry">
            <mxPoint x="939.0000000000002" y="1725.58" as="sourcePoint" />
            <mxPoint x="959.0000000000002" y="1725.58" as="targetPoint" />
          </mxGeometry>
        </mxCell>
        <mxCell id="g_v1NY4DX-FA3dxCrucZ-35" value="" style="endArrow=none;html=1;rounded=0;strokeWidth=2;" edge="1" parent="1">
          <mxGeometry width="50" height="50" relative="1" as="geometry">
            <mxPoint x="944.0000000000002" y="1730.3200000000002" as="sourcePoint" />
            <mxPoint x="954.0000000000002" y="1730.3200000000002" as="targetPoint" />
          </mxGeometry>
        </mxCell>
        <mxCell id="g_v1NY4DX-FA3dxCrucZ-36" value="$$V_S$$" style="text;html=1;align=center;verticalAlign=middle;whiteSpace=wrap;rounded=0;fontSize=16;" vertex="1" parent="1">
          <mxGeometry x="977" y="1623.87" width="35" height="20" as="geometry" />
        </mxCell>
        <mxCell id="g_v1NY4DX-FA3dxCrucZ-37" value="" style="pointerEvents=1;verticalLabelPosition=bottom;shadow=0;dashed=0;align=center;html=1;verticalAlign=top;shape=mxgraph.electrical.resistors.resistor_2;rotation=90;strokeWidth=2;" vertex="1" parent="1">
          <mxGeometry x="1260" y="1621.6899999999998" width="100" height="19.29" as="geometry" />
        </mxCell>
        <mxCell id="g_v1NY4DX-FA3dxCrucZ-38" value="" style="pointerEvents=1;fillColor=strokeColor;verticalLabelPosition=bottom;shadow=0;dashed=0;align=center;html=1;verticalAlign=top;shape=mxgraph.electrical.diodes.diode;rotation=-180;strokeWidth=2;" vertex="1" parent="1">
          <mxGeometry x="1139.5" y="1549.7100000000003" width="60" height="29.29" as="geometry" />
        </mxCell>
        <mxCell id="g_v1NY4DX-FA3dxCrucZ-39" value="$$R_o$$" style="text;html=1;align=center;verticalAlign=middle;whiteSpace=wrap;rounded=0;fontSize=16;" vertex="1" parent="1">
          <mxGeometry x="1325" y="1623.87" width="35" height="20" as="geometry" />
        </mxCell>
        <mxCell id="g_v1NY4DX-FA3dxCrucZ-40" value="$$L$$" style="text;html=1;align=center;verticalAlign=middle;whiteSpace=wrap;rounded=0;fontSize=16;" vertex="1" parent="1">
          <mxGeometry x="1104.5" y="1626.6899999999998" width="35" height="20" as="geometry" />
        </mxCell>
        <mxCell id="g_v1NY4DX-FA3dxCrucZ-41" value="$$C$$" style="text;html=1;align=center;verticalAlign=middle;whiteSpace=wrap;rounded=0;fontSize=16;" vertex="1" parent="1">
          <mxGeometry x="1190" y="1621.6899999999998" width="35" height="20" as="geometry" />
        </mxCell>
        <mxCell id="g_v1NY4DX-FA3dxCrucZ-42" value="" style="html=1;shape=mxgraph.electrical.electro-mechanical.singleSwitch;aspect=fixed;elSwitchState=off;strokeWidth=2;rotation=0;flipV=0;" vertex="1" parent="1">
          <mxGeometry x="977" y="1544.58" width="90" height="24" as="geometry" />
        </mxCell>
        <mxCell id="g_v1NY4DX-FA3dxCrucZ-50" style="edgeStyle=orthogonalEdgeStyle;rounded=0;orthogonalLoop=1;jettySize=auto;html=1;exitX=1;exitY=0.5;exitDx=0;exitDy=0;exitPerimeter=0;entryX=1;entryY=0.5;entryDx=0;entryDy=0;entryPerimeter=0;strokeWidth=2;endArrow=none;endFill=0;" edge="1" parent="1">
          <mxGeometry relative="1" as="geometry">
            <Array as="points">
              <mxPoint x="1240" y="1705.58" />
              <mxPoint x="1310" y="1705.58" />
            </Array>
            <mxPoint x="1240" y="1681.33" as="sourcePoint" />
            <mxPoint x="1310" y="1681.3349999999998" as="targetPoint" />
          </mxGeometry>
        </mxCell>
        <mxCell id="g_v1NY4DX-FA3dxCrucZ-55" style="edgeStyle=orthogonalEdgeStyle;rounded=0;orthogonalLoop=1;jettySize=auto;html=1;exitX=1;exitY=0.5;exitDx=0;exitDy=0;exitPerimeter=0;entryX=0.58;entryY=0.935;entryDx=0;entryDy=0;entryPerimeter=0;strokeWidth=2;endArrow=none;endFill=0;" edge="1" parent="1" target="g_v1NY4DX-FA3dxCrucZ-33">
          <mxGeometry relative="1" as="geometry">
            <mxPoint x="1240" y="1686.33" as="sourcePoint" />
            <mxPoint x="949" y="1660.4724999999999" as="targetPoint" />
            <Array as="points">
              <mxPoint x="1240" y="1705" />
              <mxPoint x="949" y="1705" />
            </Array>
          </mxGeometry>
        </mxCell>
        <mxCell id="g_v1NY4DX-FA3dxCrucZ-56" style="edgeStyle=orthogonalEdgeStyle;rounded=0;orthogonalLoop=1;jettySize=auto;html=1;exitX=1;exitY=1;exitDx=0;exitDy=0;exitPerimeter=0;entryX=1;entryY=0.5;entryDx=0;entryDy=0;entryPerimeter=0;strokeWidth=2;endArrow=none;endFill=0;" edge="1" parent="1">
          <mxGeometry relative="1" as="geometry">
            <mxPoint x="1097" y="1681.6899999999994" as="sourcePoint" />
            <mxPoint x="1240" y="1676.33" as="targetPoint" />
            <Array as="points">
              <mxPoint x="1097" y="1705" />
              <mxPoint x="1240" y="1705" />
            </Array>
          </mxGeometry>
        </mxCell>
        <mxCell id="g_v1NY4DX-FA3dxCrucZ-57" style="edgeStyle=orthogonalEdgeStyle;rounded=0;orthogonalLoop=1;jettySize=auto;html=1;exitX=1;exitY=0.8;exitDx=0;exitDy=0;entryX=0;entryY=1;entryDx=0;entryDy=0;entryPerimeter=0;strokeWidth=2;endArrow=none;endFill=0;" edge="1" parent="1" source="g_v1NY4DX-FA3dxCrucZ-42" target="g_v1NY4DX-FA3dxCrucZ-29">
          <mxGeometry relative="1" as="geometry" />
        </mxCell>
        <mxCell id="g_v1NY4DX-FA3dxCrucZ-58" style="edgeStyle=orthogonalEdgeStyle;rounded=0;orthogonalLoop=1;jettySize=auto;html=1;exitX=1;exitY=0.5;exitDx=0;exitDy=0;exitPerimeter=0;entryX=0;entryY=1;entryDx=0;entryDy=0;entryPerimeter=0;strokeWidth=2;endArrow=none;endFill=0;" edge="1" parent="1" source="g_v1NY4DX-FA3dxCrucZ-38" target="g_v1NY4DX-FA3dxCrucZ-29">
          <mxGeometry relative="1" as="geometry" />
        </mxCell>
        <mxCell id="g_v1NY4DX-FA3dxCrucZ-59" style="edgeStyle=orthogonalEdgeStyle;rounded=0;orthogonalLoop=1;jettySize=auto;html=1;exitX=0;exitY=0.5;exitDx=0;exitDy=0;exitPerimeter=0;entryX=0;entryY=0.5;entryDx=0;entryDy=0;entryPerimeter=0;strokeWidth=2;endArrow=none;endFill=0;" edge="1" parent="1" source="g_v1NY4DX-FA3dxCrucZ-38" target="g_v1NY4DX-FA3dxCrucZ-28">
          <mxGeometry relative="1" as="geometry">
            <Array as="points">
              <mxPoint x="1220" y="1564" />
              <mxPoint x="1240" y="1564" />
            </Array>
          </mxGeometry>
        </mxCell>
        <mxCell id="g_v1NY4DX-FA3dxCrucZ-60" style="edgeStyle=orthogonalEdgeStyle;rounded=0;orthogonalLoop=1;jettySize=auto;html=1;exitX=0;exitY=0.5;exitDx=0;exitDy=0;exitPerimeter=0;entryX=0;entryY=0.5;entryDx=0;entryDy=0;entryPerimeter=0;strokeWidth=2;endArrow=none;endFill=0;" edge="1" parent="1" source="g_v1NY4DX-FA3dxCrucZ-38" target="g_v1NY4DX-FA3dxCrucZ-37">
          <mxGeometry relative="1" as="geometry">
            <Array as="points">
              <mxPoint x="1250" y="1564" />
              <mxPoint x="1310" y="1564" />
            </Array>
          </mxGeometry>
        </mxCell>
        <mxCell id="g_v1NY4DX-FA3dxCrucZ-61" value="" style="pointerEvents=1;verticalLabelPosition=bottom;shadow=0;dashed=0;align=center;html=1;verticalAlign=top;shape=mxgraph.electrical.capacitors.capacitor_1;strokeWidth=2;rotation=90;" vertex="1" parent="1">
          <mxGeometry x="1190" y="1971.75" width="100" height="30" as="geometry" />
        </mxCell>
        <mxCell id="g_v1NY4DX-FA3dxCrucZ-62" value="" style="pointerEvents=1;verticalLabelPosition=bottom;shadow=0;dashed=0;align=center;html=1;verticalAlign=top;shape=mxgraph.electrical.inductors.inductor_3;rotation=90;strokeWidth=2;" vertex="1" parent="1">
          <mxGeometry x="1052" y="1987.1099999999997" width="100" height="10" as="geometry" />
        </mxCell>
        <mxCell id="g_v1NY4DX-FA3dxCrucZ-63" value="" style="endArrow=none;html=1;rounded=0;strokeWidth=2;" edge="1" parent="1">
          <mxGeometry width="50" height="50" relative="1" as="geometry">
            <mxPoint x="1021.8299999999999" y="1924" as="sourcePoint" />
            <mxPoint x="1021.8299999999999" y="1934" as="targetPoint" />
          </mxGeometry>
        </mxCell>
        <mxCell id="g_v1NY4DX-FA3dxCrucZ-64" value="$$CLK$$" style="text;html=1;align=center;verticalAlign=middle;whiteSpace=wrap;rounded=0;fontSize=12;" vertex="1" parent="1">
          <mxGeometry x="1004.5" y="1935.42" width="35" height="20" as="geometry" />
        </mxCell>
        <mxCell id="g_v1NY4DX-FA3dxCrucZ-65" style="edgeStyle=orthogonalEdgeStyle;rounded=0;orthogonalLoop=1;jettySize=auto;html=1;exitX=0.58;exitY=0.935;exitDx=0;exitDy=0;exitPerimeter=0;strokeWidth=2;endArrow=none;endFill=0;" edge="1" parent="1" source="g_v1NY4DX-FA3dxCrucZ-67">
          <mxGeometry relative="1" as="geometry">
            <mxPoint x="949.047619047619" y="2080.5699999999997" as="targetPoint" />
          </mxGeometry>
        </mxCell>
        <mxCell id="g_v1NY4DX-FA3dxCrucZ-66" style="edgeStyle=orthogonalEdgeStyle;rounded=0;orthogonalLoop=1;jettySize=auto;html=1;exitX=0.58;exitY=0.135;exitDx=0;exitDy=0;exitPerimeter=0;entryX=0;entryY=0.8;entryDx=0;entryDy=0;strokeWidth=2;endArrow=none;endFill=0;" edge="1" parent="1" source="g_v1NY4DX-FA3dxCrucZ-67" target="g_v1NY4DX-FA3dxCrucZ-76">
          <mxGeometry relative="1" as="geometry">
            <Array as="points">
              <mxPoint x="949" y="1919.42" />
            </Array>
          </mxGeometry>
        </mxCell>
        <mxCell id="g_v1NY4DX-FA3dxCrucZ-67" value="" style="pointerEvents=1;verticalLabelPosition=bottom;shadow=0;dashed=0;align=center;html=1;verticalAlign=top;shape=mxgraph.electrical.signal_sources.dc_source_1;strokeWidth=2;" vertex="1" parent="1">
          <mxGeometry x="920" y="1959" width="50" height="55.5" as="geometry" />
        </mxCell>
        <mxCell id="g_v1NY4DX-FA3dxCrucZ-68" value="" style="endArrow=none;html=1;rounded=0;strokeWidth=2;" edge="1" parent="1">
          <mxGeometry width="50" height="50" relative="1" as="geometry">
            <mxPoint x="939.0000000000002" y="2081" as="sourcePoint" />
            <mxPoint x="959.0000000000002" y="2081" as="targetPoint" />
          </mxGeometry>
        </mxCell>
        <mxCell id="g_v1NY4DX-FA3dxCrucZ-69" value="" style="endArrow=none;html=1;rounded=0;strokeWidth=2;" edge="1" parent="1">
          <mxGeometry width="50" height="50" relative="1" as="geometry">
            <mxPoint x="944.0000000000002" y="2085.7400000000002" as="sourcePoint" />
            <mxPoint x="954.0000000000002" y="2085.7400000000002" as="targetPoint" />
          </mxGeometry>
        </mxCell>
        <mxCell id="g_v1NY4DX-FA3dxCrucZ-70" value="$$V_S$$" style="text;html=1;align=center;verticalAlign=middle;whiteSpace=wrap;rounded=0;fontSize=16;" vertex="1" parent="1">
          <mxGeometry x="977" y="1979.29" width="35" height="20" as="geometry" />
        </mxCell>
        <mxCell id="g_v1NY4DX-FA3dxCrucZ-71" value="" style="pointerEvents=1;verticalLabelPosition=bottom;shadow=0;dashed=0;align=center;html=1;verticalAlign=top;shape=mxgraph.electrical.resistors.resistor_2;rotation=90;strokeWidth=2;" vertex="1" parent="1">
          <mxGeometry x="1260" y="1977.11" width="100" height="19.29" as="geometry" />
        </mxCell>
        <mxCell id="g_v1NY4DX-FA3dxCrucZ-72" value="" style="pointerEvents=1;fillColor=strokeColor;verticalLabelPosition=bottom;shadow=0;dashed=0;align=center;html=1;verticalAlign=top;shape=mxgraph.electrical.diodes.diode;rotation=-180;strokeWidth=2;" vertex="1" parent="1">
          <mxGeometry x="1139.5" y="1905.1300000000003" width="60" height="29.29" as="geometry" />
        </mxCell>
        <mxCell id="g_v1NY4DX-FA3dxCrucZ-73" value="$$R_o$$" style="text;html=1;align=center;verticalAlign=middle;whiteSpace=wrap;rounded=0;fontSize=16;" vertex="1" parent="1">
          <mxGeometry x="1325" y="1979.29" width="35" height="20" as="geometry" />
        </mxCell>
        <mxCell id="g_v1NY4DX-FA3dxCrucZ-74" value="$$L$$" style="text;html=1;align=center;verticalAlign=middle;whiteSpace=wrap;rounded=0;fontSize=16;" vertex="1" parent="1">
          <mxGeometry x="1104.5" y="1982.11" width="35" height="20" as="geometry" />
        </mxCell>
        <mxCell id="g_v1NY4DX-FA3dxCrucZ-75" value="$$C$$" style="text;html=1;align=center;verticalAlign=middle;whiteSpace=wrap;rounded=0;fontSize=16;" vertex="1" parent="1">
          <mxGeometry x="1190" y="1977.11" width="35" height="20" as="geometry" />
        </mxCell>
        <mxCell id="g_v1NY4DX-FA3dxCrucZ-76" value="" style="html=1;shape=mxgraph.electrical.electro-mechanical.singleSwitch;aspect=fixed;elSwitchState=off;strokeWidth=2;rotation=0;flipV=0;" vertex="1" parent="1">
          <mxGeometry x="977" y="1900" width="90" height="24" as="geometry" />
        </mxCell>
        <mxCell id="g_v1NY4DX-FA3dxCrucZ-77" style="edgeStyle=orthogonalEdgeStyle;rounded=0;orthogonalLoop=1;jettySize=auto;html=1;exitX=1;exitY=0.5;exitDx=0;exitDy=0;exitPerimeter=0;entryX=1;entryY=0.5;entryDx=0;entryDy=0;entryPerimeter=0;strokeWidth=2;endArrow=none;endFill=0;" edge="1" parent="1">
          <mxGeometry relative="1" as="geometry">
            <Array as="points">
              <mxPoint x="1240" y="2061" />
              <mxPoint x="1310" y="2061" />
            </Array>
            <mxPoint x="1240" y="2036.75" as="sourcePoint" />
            <mxPoint x="1310" y="2036.7549999999999" as="targetPoint" />
          </mxGeometry>
        </mxCell>
        <mxCell id="g_v1NY4DX-FA3dxCrucZ-78" style="edgeStyle=orthogonalEdgeStyle;rounded=0;orthogonalLoop=1;jettySize=auto;html=1;exitX=1;exitY=0.5;exitDx=0;exitDy=0;exitPerimeter=0;entryX=0.58;entryY=0.935;entryDx=0;entryDy=0;entryPerimeter=0;strokeWidth=2;endArrow=none;endFill=0;" edge="1" parent="1" target="g_v1NY4DX-FA3dxCrucZ-67">
          <mxGeometry relative="1" as="geometry">
            <mxPoint x="1240" y="2041.75" as="sourcePoint" />
            <mxPoint x="949" y="2015.8925" as="targetPoint" />
            <Array as="points">
              <mxPoint x="1240" y="2060.42" />
              <mxPoint x="949" y="2060.42" />
            </Array>
          </mxGeometry>
        </mxCell>
        <mxCell id="g_v1NY4DX-FA3dxCrucZ-79" style="edgeStyle=orthogonalEdgeStyle;rounded=0;orthogonalLoop=1;jettySize=auto;html=1;exitX=1;exitY=1;exitDx=0;exitDy=0;exitPerimeter=0;entryX=1;entryY=0.5;entryDx=0;entryDy=0;entryPerimeter=0;strokeWidth=2;endArrow=none;endFill=0;" edge="1" parent="1">
          <mxGeometry relative="1" as="geometry">
            <mxPoint x="1097" y="2037.1099999999994" as="sourcePoint" />
            <mxPoint x="1240" y="2031.75" as="targetPoint" />
            <Array as="points">
              <mxPoint x="1097" y="2060.42" />
              <mxPoint x="1240" y="2060.42" />
            </Array>
          </mxGeometry>
        </mxCell>
        <mxCell id="g_v1NY4DX-FA3dxCrucZ-80" style="edgeStyle=orthogonalEdgeStyle;rounded=0;orthogonalLoop=1;jettySize=auto;html=1;exitX=1;exitY=0.8;exitDx=0;exitDy=0;entryX=0;entryY=1;entryDx=0;entryDy=0;entryPerimeter=0;strokeWidth=2;endArrow=none;endFill=0;" edge="1" parent="1" source="g_v1NY4DX-FA3dxCrucZ-76" target="g_v1NY4DX-FA3dxCrucZ-62">
          <mxGeometry relative="1" as="geometry" />
        </mxCell>
        <mxCell id="g_v1NY4DX-FA3dxCrucZ-81" style="edgeStyle=orthogonalEdgeStyle;rounded=0;orthogonalLoop=1;jettySize=auto;html=1;exitX=1;exitY=0.5;exitDx=0;exitDy=0;exitPerimeter=0;entryX=0;entryY=1;entryDx=0;entryDy=0;entryPerimeter=0;strokeWidth=2;endArrow=none;endFill=0;" edge="1" parent="1" source="g_v1NY4DX-FA3dxCrucZ-72" target="g_v1NY4DX-FA3dxCrucZ-62">
          <mxGeometry relative="1" as="geometry" />
        </mxCell>
        <mxCell id="g_v1NY4DX-FA3dxCrucZ-82" style="edgeStyle=orthogonalEdgeStyle;rounded=0;orthogonalLoop=1;jettySize=auto;html=1;exitX=0;exitY=0.5;exitDx=0;exitDy=0;exitPerimeter=0;entryX=0;entryY=0.5;entryDx=0;entryDy=0;entryPerimeter=0;strokeWidth=2;endArrow=none;endFill=0;" edge="1" parent="1" source="g_v1NY4DX-FA3dxCrucZ-72" target="g_v1NY4DX-FA3dxCrucZ-61">
          <mxGeometry relative="1" as="geometry">
            <Array as="points">
              <mxPoint x="1220" y="1919.42" />
              <mxPoint x="1240" y="1919.42" />
            </Array>
          </mxGeometry>
        </mxCell>
        <mxCell id="g_v1NY4DX-FA3dxCrucZ-83" style="edgeStyle=orthogonalEdgeStyle;rounded=0;orthogonalLoop=1;jettySize=auto;html=1;exitX=0;exitY=0.5;exitDx=0;exitDy=0;exitPerimeter=0;entryX=0;entryY=0.5;entryDx=0;entryDy=0;entryPerimeter=0;strokeWidth=2;endArrow=none;endFill=0;" edge="1" parent="1" source="g_v1NY4DX-FA3dxCrucZ-72" target="g_v1NY4DX-FA3dxCrucZ-71">
          <mxGeometry relative="1" as="geometry">
            <Array as="points">
              <mxPoint x="1250" y="1919.42" />
              <mxPoint x="1310" y="1919.42" />
            </Array>
          </mxGeometry>
        </mxCell>
      </root>
    </mxGraphModel>
  </diagram>
</mxfile>
